<svg width="116" height="115" viewBox="0 0 116 115" fill="none" xmlns="http://www.w3.org/2000/svg">
<rect x="0.5" width="115" height="115" rx="57.5" fill="#DCEDFF"/>
<path d="M30.9303 90.7186H89.334C90.9908 90.7186 92.334 89.3755 92.334 87.7186V49.7626C92.334 48.9222 91.9815 48.1203 91.3622 47.5521L85.0896 41.7968C84.7932 41.5249 84.5545 41.1961 84.3877 40.83L82.044 35.6855C81.5566 34.6157 80.4894 33.9292 79.3139 33.9292H44.659C43.0883 33.9292 41.7835 35.1408 41.6672 36.7072L41.1651 43.474C41.1204 44.0764 40.895 44.6513 40.5182 45.1234L28.5855 60.0752C28.1613 60.6067 27.9303 61.2666 27.9303 61.9466V87.7186C27.9303 89.3755 29.2734 90.7186 30.9303 90.7186Z" fill="#435BBF"/>
<path d="M86.1475 74.6831C86.1475 73.0262 84.8043 71.6831 83.1475 71.6831H71.6982C70.0413 71.6831 68.6982 73.0263 68.6982 74.6831V90.7187H86.1475V74.6831Z" fill="#222E60"/>
<path d="M63.0597 59.9792L77.4219 33.9292H36.3806C35.2876 33.9292 34.2811 34.5236 33.7534 35.4808L21.8438 57.0823C20.7415 59.0818 22.1878 61.5308 24.471 61.5308H60.4325C61.5255 61.5308 62.532 60.9364 63.0597 59.9792Z" fill="#768EF2"/>
<path d="M92.6395 61.5308L77.4219 33.9292H82.4631C83.5561 33.9292 84.5626 34.5236 85.0903 35.4808L96.9999 57.0823C98.1023 59.0818 96.6559 61.5308 94.3728 61.5308H92.6395Z" fill="#768EF2"/>
<path d="M51.0686 43.8858C54.6353 40.8173 56.8846 36.3293 56.8846 31.3295C56.8846 22.0806 49.1873 14.5828 39.6923 14.5828C30.1973 14.5828 22.5 22.0806 22.5 31.3295C22.5 36.3293 24.7493 40.8173 28.316 43.8858H28.1724L39.6923 55.505L51.2122 43.8858H51.0686Z" fill="#EF5454"/>
<circle cx="39.5" cy="32.0931" r="7" fill="white"/>
<rect width="21.1737" height="18.8237" rx="0.5016" transform="matrix(-1 0 0 1 40.5654 71.9093)" fill="#E6B766"/>
<rect width="18.5489" height="18.8237" rx="0.5016" transform="matrix(-1 0 0 1 51.165 71.9093)" fill="#FFD58D"/>
<path d="M44.167 71.9093H39.6133V78.9307C39.6133 79.2078 39.8378 79.4323 40.1149 79.4323H43.6654C43.9424 79.4323 44.167 79.2078 44.167 78.9307V71.9093Z" fill="#FFEAC6"/>
</svg>
