<svg width="120" height="120" viewBox="0 0 120 120" fill="none" xmlns="http://www.w3.org/2000/svg">
<rect width="120" height="120" rx="60" fill="#DCEDFF"/>
<mask id="mask0_2225_41029" style="mask-type:alpha" maskUnits="userSpaceOnUse" x="21" y="22" width="72" height="76">
<path d="M57.356 22.5L92.8448 37.0105V82.9895L57.356 97.5L21.8672 82.9895V37.0105L57.356 22.5Z" fill="#C4C4C4"/>
</mask>
<g mask="url(#mask0_2225_41029)">
<path d="M57.356 22.5L92.8448 37.0105V82.9895L57.356 97.5L21.8672 82.9895V37.0105L57.356 22.5Z" fill="#435BBF"/>
<path d="M26.4657 68.3701L38.7832 73.415V82.3653L26.4657 77.3179V68.3701Z" fill="#FFCB71"/>
<path d="M92.8462 37.0107H57.3574V97.5002L92.8462 82.9897V37.0107Z" fill="#32448F"/>
<circle cx="90.3612" cy="77.576" r="17.7694" fill="#1C3082"/>
<path d="M78.9044 42.1523H71.5869V57.5711L78.9044 54.5791V42.1523Z" fill="#23347B"/>
<path d="M92.8448 37.0105L57.356 22.5L21.8672 37.0105L57.356 51.8432L92.8448 37.0105Z" fill="#5472EF"/>
<path d="M78.8787 42.8483L71.527 45.9209L36.2637 31.1247L43.5212 28.1572L78.8787 42.8483Z" fill="#23347B"/>
</g>
<rect x="77" y="61" width="30" height="30" rx="15" fill="#F75656"/>
<path d="M89 68.5C88.5858 68.5 88.25 68.8358 88.25 69.25C88.25 69.6642 88.5858 70 89 70H95.375C95.7892 70 96.125 69.6642 96.125 69.25C96.125 68.8358 95.7892 68.5 95.375 68.5H89Z" fill="white"/>
<path fill-rule="evenodd" clip-rule="evenodd" d="M95.6003 83.65H88.4003C87.4062 83.65 86.6003 82.8441 86.6003 81.85L85.9997 72.55H85.775C85.2779 72.55 84.875 72.147 84.875 71.65C84.875 71.1529 85.2779 70.75 85.775 70.75C85.775 70.75 87.3557 70.7426 88.3206 70.75C89.8161 70.7615 92.1494 70.75 92.1494 70.75H98.5244C99.0215 70.75 99.4244 71.1529 99.4244 71.65C99.4244 72.147 99.0215 72.55 98.5244 72.55H98.2997L97.4003 81.85C97.4003 82.8441 96.5944 83.65 95.6003 83.65ZM91.1003 75.55C91.1003 75.0529 90.6973 74.65 90.2003 74.65C89.7032 74.65 89.3003 75.0529 89.3003 75.55V80.05C89.3003 80.547 89.7032 80.95 90.2003 80.95C90.6973 80.95 91.1003 80.547 91.1003 80.05V75.55ZM94.7003 75.55C94.7003 75.0529 94.2973 74.65 93.8003 74.65C93.3032 74.65 92.9003 75.0529 92.9003 75.55V80.05C92.9003 80.547 93.3032 80.95 93.8003 80.95C94.2973 80.95 94.7003 80.547 94.7003 80.05V75.55Z" fill="white"/>
</svg>
