<svg width="32" height="32" viewBox="0 0 32 32" fill="none" xmlns="http://www.w3.org/2000/svg">
<circle cx="16" cy="16" r="16" fill="#E1F1E6"/>
<rect width="20" height="20" transform="translate(6 6)" fill="#E1F1E6"/>
<path fill-rule="evenodd" clip-rule="evenodd" d="M16.1876 8.77083C16.2771 8.7316 16.379 8.7316 16.4685 8.77083L18.5969 9.70351L12.1755 12.7253L9.63679 11.6414L16.1876 8.77083ZM11.5625 13.8819V16.8887C11.5625 17.2477 11.8535 17.5387 12.2125 17.5387C12.5715 17.5387 12.8625 17.2477 12.8625 16.8887V14.437L15.678 15.6391V24.2282L8.85913 21.2401C8.73184 21.1844 8.64961 21.0585 8.64961 20.9196V12.6382L11.5625 13.8819ZM13.7763 13.4088L20.1779 10.3963L23.0193 11.6414L16.328 14.4983L13.7763 13.4088ZM16.9903 7.58014C16.5682 7.39516 16.0879 7.39516 15.6658 7.58014L7.73873 11.0538C7.50152 11.1577 7.34867 11.3926 7.34961 11.6515L7.34961 11.6539V20.9196C7.34961 21.5747 7.73727 22.1679 8.33737 22.4308L16.0672 25.818C16.151 25.8548 16.2402 25.8728 16.329 25.8727C16.4177 25.8728 16.5068 25.8547 16.5906 25.818L24.3204 22.4308C24.9205 22.1679 25.3081 21.5747 25.3081 20.9196V15.5081C25.3081 15.1491 25.0171 14.8581 24.6581 14.8581C24.2991 14.8581 24.0081 15.1491 24.0081 15.5081V20.9196C24.0081 21.0585 23.9259 21.1844 23.7986 21.2401L16.9797 24.2282V15.6391L24.9133 12.2517C25.2303 12.1163 25.3844 11.7589 25.2714 11.4383C25.2134 11.2693 25.0869 11.1281 24.9173 11.0538L16.9903 7.58014Z" fill="#5ED081"/>
</svg>
