<svg width="32" height="32" viewBox="0 0 32 32" fill="none" xmlns="http://www.w3.org/2000/svg">
<circle cx="16" cy="16" r="16" fill="#E1E1FF"/>
<path d="M18.5148 20.8614H14.1893M21.9563 20.8614H23.1797C23.673 20.8614 24.0729 20.4615 24.0729 19.9682V17.45C24.0729 17.2774 24.0228 17.1084 23.9288 16.9637L23.0784 15.6538H18.227V10.5934C18.227 10.1001 17.8271 9.7002 17.3338 9.7002H8.79978M10.7706 20.8614H9.69297C9.19969 20.8614 8.7998 20.4615 8.7998 19.9682V12.9313" stroke="#2E47BA" strokeWidth="1.16111" stroke-miterlimit="10" strokeLinecap="round" strokeLinejoin="round"/>
<path d="M18.2373 12.2363H20.5601C20.8772 12.2363 21.1706 12.4045 21.3308 12.6781L23.0613 15.6325" stroke="#2E47BA" strokeWidth="1.16111" stroke-miterlimit="10" strokeLinecap="round" strokeLinejoin="round"/>
<circle cx="20.2218" cy="20.8614" r="1.7071" stroke="#2E47BA" strokeWidth="1.16111" stroke-miterlimit="10" strokeLinecap="round" strokeLinejoin="round"/>
<circle cx="12.4815" cy="20.8614" r="1.7071" stroke="#2E47BA" strokeWidth="1.16111" stroke-miterlimit="10" strokeLinecap="round" strokeLinejoin="round"/>
</svg>
