<svg width="26" height="26" viewBox="0 0 26 26" fill="none" xmlns="http://www.w3.org/2000/svg">
<g id="SiCepat">
<g clipPath="url(#clip0_368_15933)">
<rect x="1" y="1" width="24" height="24" rx="12" fill="white"/>
<g id="Group">
<path id="Vector" fill-rule="evenodd" clip-rule="evenodd" d="M10.59 21.0004C13.5541 21.0004 15.9701 20.7737 15.9701 20.4971C15.9701 20.2206 13.5541 19.9883 10.59 19.9883C7.62595 19.9883 5.20996 20.215 5.20996 20.4916C5.20996 20.7681 7.62595 21.0004 10.59 21.0004Z" fill="#CAC9C9"/>
<g id="Group_2">
<path id="Vector_2" fill-rule="evenodd" clip-rule="evenodd" d="M10.2934 5.04425L20.4831 9.31955C20.7739 9.44122 20.9137 9.7786 20.7907 10.0717L16.462 20.1488C16.339 20.4364 15.9978 20.5747 15.7014 20.453L5.51738 16.1722C5.22656 16.0505 5.08675 15.7131 5.20979 15.42L9.53284 5.34845C9.66147 5.06084 10.0026 4.92258 10.2934 5.04425Z" fill="#921D26"/>
<path id="Vector_3" fill-rule="evenodd" clip-rule="evenodd" d="M20.2263 9.8623C20.2487 9.91761 20.2487 9.97845 20.2263 10.0338L16.0431 19.779C15.9927 19.8896 15.8641 19.9449 15.7467 19.8951L5.89257 15.7581C5.83664 15.736 5.7919 15.6917 5.76953 15.6364L20.2263 9.8623Z" fill="#70161E"/>
<path id="Vector_4" fill-rule="evenodd" clip-rule="evenodd" d="M10.3044 5.93468L19.8342 9.93343C19.8901 9.95556 19.918 10.0219 19.8957 10.0828L15.8467 19.5017C15.8243 19.557 15.7572 19.5846 15.6957 19.5625L6.16592 15.5638C6.10999 15.5416 6.08203 15.4753 6.1044 15.4144L10.1534 5.98998C10.1758 5.93468 10.2429 5.90702 10.3044 5.93468Z" fill="#D5232B"/>
<path id="Vector_5" fill-rule="evenodd" clip-rule="evenodd" d="M19.8911 9.99414C19.9023 10.0218 19.9023 10.0494 19.8911 10.0826L15.8477 19.5016C15.8253 19.5569 15.7582 19.5845 15.6967 19.5624L6.16699 15.5636C6.13902 15.5526 6.11665 15.5305 6.10547 15.5028L19.8911 9.99414Z" fill="#A11F24"/>
<path id="Vector_6" fill-rule="evenodd" clip-rule="evenodd" d="M18.1402 10.2773L12.2288 13.2252L11.6416 10.6092L18.1402 10.2773Z" fill="white"/>
<path id="Vector_7" fill-rule="evenodd" clip-rule="evenodd" d="M8.00391 15.3307L13.9152 12.3828L14.5025 14.9933L8.00391 15.3307Z" fill="#E6E6E6"/>
<path id="Vector_8" fill-rule="evenodd" clip-rule="evenodd" d="M12.2275 13.2235L13.9165 12.3828L14.0395 12.9359L12.2275 13.2235Z" fill="#B3B3B3"/>
</g>
</g>
</g>
<rect x="0.5" y="0.5" width="25" height="25" rx="12.5" stroke="#E0E9F4"/>
</g>
<defs>
<clipPath id="clip0_368_15933">
<rect x="1" y="1" width="24" height="24" rx="12" fill="white"/>
</clipPath>
</defs>
</svg>
