<svg width="116" height="115" viewBox="0 0 116 115" fill="none" xmlns="http://www.w3.org/2000/svg">
<rect x="0.5" width="115" height="115" rx="57.5" fill="#DCEDFF"/>
<rect x="19.4279" y="57.5" width="39.6" height="33.6" rx="1.2" fill="#435BBF"/>
<path d="M23.0278 82.7002H27.8278" stroke="#5472EF" strokeWidth="1.8" strokeLinecap="round"/>
<path d="M23.0278 86.2998H30.8278" stroke="#5472EF" strokeWidth="1.8" strokeLinecap="round"/>
<rect x="43.4279" y="57.5" width="19.2" height="33.6" rx="1.2" fill="#5472EF"/>
<rect x="27.8279" y="57.5" width="7.2" height="18" fill="#FFCB71"/>
<rect x="53.0278" y="57.5" width="39.6" height="33.6" rx="1.2" fill="#435BBF"/>
<path d="M56.6278 82.7002H61.4278" stroke="#5472EF" strokeWidth="1.8" strokeLinecap="round"/>
<path d="M56.6278 86.2998H64.4278" stroke="#5472EF" strokeWidth="1.8" strokeLinecap="round"/>
<rect x="77.0278" y="57.5" width="19.2" height="33.6" rx="1.2" fill="#5472EF"/>
<rect x="61.4279" y="57.5" width="7.2" height="18" fill="#FFCB71"/>
<rect x="37.4279" y="23.9004" width="39.6" height="33.6" rx="1.2" fill="#435BBF"/>
<path d="M41.0278 49.1006H45.8278" stroke="#5472EF" strokeWidth="1.8" strokeLinecap="round"/>
<path d="M41.0278 52.7002H48.8278" stroke="#5472EF" strokeWidth="1.8" strokeLinecap="round"/>
<rect x="61.4279" y="23.9004" width="19.2" height="33.6" rx="1.2" fill="#5472EF"/>
<rect x="45.8279" y="23.9004" width="7.2" height="18" fill="#FFCB71"/>
<circle cx="87.7001" cy="42.5868" r="23.0907" fill="white"/>
<circle cx="87.7005" cy="42.5872" r="11.9856" stroke="#EF5454" strokeWidth="5.21739" strokeLinecap="round"/>
<path d="M96.9111 35.5859L78.7422 50.0429" stroke="#EF5454" strokeWidth="5.21739" strokeLinecap="round"/>
</svg>
