<svg width="32" height="32" viewBox="0 0 32 32" fill="none" xmlns="http://www.w3.org/2000/svg">
<circle cx="16" cy="16" r="16" fill="#E1F1E6"/>
<rect width="20" height="20" transform="translate(6 6)" fill="#E1F1E6"/>
<path fill-rule="evenodd" clip-rule="evenodd" d="M16.188 8.77083C16.2776 8.7316 16.3795 8.7316 16.469 8.77083L18.5974 9.70351L12.176 12.7253L9.63728 11.6414L16.188 8.77083ZM11.563 13.8819V16.8887C11.563 17.2477 11.854 17.5387 12.213 17.5387C12.572 17.5387 12.863 17.2477 12.863 16.8887V14.437L15.6785 15.6391V24.2282L8.85962 21.2401C8.73233 21.1844 8.6501 21.0585 8.6501 20.9196V12.6382L11.563 13.8819ZM13.7767 13.4088L20.1784 10.3963L23.0198 11.6414L16.3285 14.4983L13.7767 13.4088ZM16.9908 7.58014C16.5686 7.39516 16.0884 7.39516 15.6663 7.58014L7.73921 11.0538C7.50201 11.1577 7.34916 11.3926 7.3501 11.6515L7.3501 11.6539V20.9196C7.3501 21.5747 7.73776 22.1679 8.33786 22.4308L16.0676 25.818C16.1515 25.8548 16.2407 25.8728 16.3295 25.8727C16.4182 25.8728 16.5073 25.8547 16.5911 25.818L24.3208 22.4308C24.9209 22.1679 25.3086 21.5747 25.3086 20.9196V15.5081C25.3086 15.1491 25.0176 14.8581 24.6586 14.8581C24.2996 14.8581 24.0086 15.1491 24.0086 15.5081V20.9196C24.0086 21.0585 23.9264 21.1844 23.7991 21.2401L16.9802 24.2282V15.6391L24.9138 12.2517C25.2308 12.1163 25.3849 11.7589 25.2718 11.4383C25.2139 11.2693 25.0874 11.1281 24.9178 11.0538L16.9908 7.58014Z" fill="#5ED081"/>
</svg>
