<svg width="116" height="115" viewBox="0 0 116 115" fill="none" xmlns="http://www.w3.org/2000/svg">
<rect x="0.5" width="115" height="115" rx="57.5" fill="#DCEDFF"/>
<rect x="19.4277" y="57.5" width="39.6" height="33.6" rx="1.2" fill="#435BBF"/>
<path d="M23.0278 82.7H27.8278" stroke="#5472EF" strokeWidth="1.8" strokeLinecap="round"/>
<path d="M23.0278 86.3H30.8278" stroke="#5472EF" strokeWidth="1.8" strokeLinecap="round"/>
<rect x="43.4277" y="57.5" width="19.2" height="33.6" rx="1.2" fill="#5472EF"/>
<rect x="27.8276" y="57.5" width="7.2" height="18" fill="#FFCB71"/>
<rect x="53.0278" y="57.5" width="39.6" height="33.6" rx="1.2" fill="#435BBF"/>
<path d="M56.6279 82.7H61.4279" stroke="#5472EF" strokeWidth="1.8" strokeLinecap="round"/>
<path d="M56.6279 86.3H64.4279" stroke="#5472EF" strokeWidth="1.8" strokeLinecap="round"/>
<rect x="77.0278" y="57.5" width="19.2" height="33.6" rx="1.2" fill="#5472EF"/>
<rect x="61.4277" y="57.5" width="7.2" height="18" fill="#FFCB71"/>
<rect x="37.4277" y="23.8999" width="39.6" height="33.6" rx="1.2" fill="#435BBF"/>
<path d="M41.0278 49.0999H45.8278" stroke="#5472EF" strokeWidth="1.8" strokeLinecap="round"/>
<path d="M41.0278 52.7H48.8278" stroke="#5472EF" strokeWidth="1.8" strokeLinecap="round"/>
<rect x="61.4277" y="23.8999" width="19.2" height="33.6" rx="1.2" fill="#5472EF"/>
<rect x="45.8276" y="23.8999" width="7.2" height="18" fill="#FFCB71"/>
<path d="M78.2017 60.5076L92.5489 76.4599" stroke="#222E60" strokeWidth="4.86"/>
<circle cx="16.4337" cy="16.4337" r="16.4337" transform="matrix(-0.743524 0.668709 0.668709 0.743524 68.0225 25.2971)" fill="white"/>
<path d="M65.1016 50.6161L65.1016 50.3809C65.1062 49.5738 65.1777 48.9304 65.3161 48.4508C65.4591 47.9711 65.6666 47.5837 65.9387 47.2886C66.2108 46.9934 66.5383 46.7259 66.9211 46.4861C67.207 46.3016 67.463 46.1102 67.689 45.9119C67.915 45.7136 68.0948 45.4945 68.2286 45.2547C68.3623 45.0102 68.4292 44.7381 68.4292 44.4383C68.4292 44.1201 68.3531 43.8411 68.2009 43.6012C68.0487 43.3614 67.8435 43.1769 67.5852 43.0478C67.3316 42.9187 67.0502 42.8541 66.7412 42.8541C66.4414 42.8541 66.1578 42.921 65.8903 43.0547C65.6228 43.1839 65.4037 43.3776 65.2331 43.6358C65.0624 43.8895 64.9702 44.2054 64.9564 44.5836L62.1338 44.5836C62.1568 43.6612 62.3782 42.9002 62.7979 42.3006C63.2176 41.6965 63.7734 41.2468 64.4652 40.9516C65.157 40.6518 65.9203 40.502 66.755 40.502C67.6728 40.502 68.4846 40.6542 69.1902 40.9585C69.8958 41.2583 70.4493 41.6942 70.8505 42.2661C71.2518 42.8379 71.4524 43.5274 71.4524 44.3346C71.4524 44.8742 71.3625 45.3538 71.1826 45.7735C71.0073 46.1886 70.7606 46.5576 70.4424 46.8804C70.1241 47.1986 69.7483 47.4869 69.3147 47.7452C68.9504 47.9619 68.6506 48.1879 68.4154 48.4231C68.1848 48.6583 68.0118 48.9304 67.8965 49.2395C67.7858 49.5485 67.7282 49.929 67.7236 50.3809L67.7236 50.6161L65.1016 50.6161ZM66.4714 55.0437C66.0102 55.0437 65.6159 54.8823 65.2884 54.5594C64.9656 54.232 64.8065 53.84 64.8111 53.3834C64.8065 52.9314 64.9656 52.544 65.2884 52.2211C65.6159 51.8983 66.0102 51.7369 66.4714 51.7369C66.9096 51.7369 67.2947 51.8983 67.6267 52.2211C67.9588 52.544 68.1271 52.9314 68.1317 53.3834C68.1271 53.6878 68.0464 53.9668 67.8896 54.2205C67.7374 54.4695 67.5368 54.6701 67.2877 54.8223C67.0387 54.9699 66.7666 55.0437 66.4714 55.0437Z" fill="#EF5454"/>
<circle cx="16.4337" cy="16.4337" r="16.4337" transform="matrix(-0.743524 0.668709 0.668709 0.743524 68.0225 25.2971)" stroke="#EF5454" strokeWidth="4.86"/>
<path d="M83.9312 67.0645L94.2082 78.4913" stroke="#222E60" strokeWidth="7.29" strokeLinecap="round"/>
</svg>
