<svg width="32" height="32" viewBox="0 0 32 32" fill="none" xmlns="http://www.w3.org/2000/svg">
<circle cx="16" cy="16" r="16" fill="#E1F1E6"/>
<rect width="20" height="20" transform="translate(6 6)" fill="#E1F1E6"/>
<path fill-rule="evenodd" clip-rule="evenodd" d="M16.1895 8.77083C16.2791 8.7316 16.3809 8.7316 16.4705 8.77083L18.5989 9.70351L12.1775 12.7253L9.63874 11.6414L16.1895 8.77083ZM11.5645 13.8819V16.8887C11.5645 17.2477 11.8555 17.5387 12.2145 17.5387C12.5734 17.5387 12.8645 17.2477 12.8645 16.8887V14.437L15.68 15.6391V24.2282L8.86109 21.2401C8.73379 21.1844 8.65156 21.0585 8.65156 20.9196V12.6382L11.5645 13.8819ZM13.7782 13.4088L20.1798 10.3963L23.0212 11.6414L16.33 14.4983L13.7782 13.4088ZM16.9922 7.58014C16.5701 7.39516 16.0899 7.39516 15.6677 7.58014L7.74068 11.0538C7.50347 11.1577 7.35062 11.3926 7.35157 11.6515L7.35156 11.6539V20.9196C7.35156 21.5747 7.73922 22.1679 8.33932 22.4308L16.0691 25.818C16.1529 25.8548 16.2421 25.8728 16.331 25.8727C16.4197 25.8728 16.5088 25.8547 16.5925 25.818L24.3223 22.4308C24.9224 22.1679 25.3101 21.5747 25.3101 20.9196V15.5081C25.3101 15.1491 25.019 14.8581 24.6601 14.8581C24.3011 14.8581 24.0101 15.1491 24.0101 15.5081V20.9196C24.0101 21.0585 23.9278 21.1844 23.8005 21.2401L16.9816 24.2282V15.6391L24.9153 12.2517C25.2323 12.1163 25.3863 11.7589 25.2733 11.4383C25.2153 11.2693 25.0889 11.1281 24.9193 11.0538L16.9922 7.58014Z" fill="#5ED081"/>
</svg>
