<svg width="41" height="40" viewBox="0 0 41 40" fill="none" xmlns="http://www.w3.org/2000/svg">
<g id="Group 37952">
<ellipse id="Ellipse 2133" cx="20.5002" cy="20" rx="20.3856" ry="20" fill="#DCEDFF"/>
<mask id="mask0_1471_2687" style="mask-type:alpha" maskUnits="userSpaceOnUse" x="0" y="0" width="41" height="40">
<ellipse id="Ellipse 2134" cx="20.5002" cy="20" rx="20.3856" ry="20" fill="#DCEDFF"/>
</mask>
<g mask="url(#mask0_1471_2687)">
<g id="Group 37939">
<path id="Subtract" fill-rule="evenodd" clip-rule="evenodd" d="M9.33327 20.9568C8.79737 19.9061 9.30597 18.6314 10.4264 18.2168L18.1523 15.3583C18.6187 15.1857 19.1337 15.1885 19.5981 15.3662L33.2092 20.5727C34.2481 20.9701 34.7619 22.1185 34.3568 23.1378L30.3339 33.2605C29.9289 34.2798 28.7583 34.7839 27.7194 34.3865L14.1112 29.1811C13.6451 29.0028 13.263 28.661 13.0391 28.2221L9.33327 20.9568Z" fill="#435BBF"/>
<path id="Subtract_2" fill-rule="evenodd" clip-rule="evenodd" d="M9.55042 21.2769C8.66067 20.4907 8.65997 19.1218 9.54891 18.3347L15.6786 12.907C16.0487 12.5793 16.5292 12.3975 17.0277 12.3966L31.6367 12.3705C32.7517 12.3685 33.6573 13.2538 33.6594 14.3477L33.6795 25.2127C33.6816 26.3067 32.7793 27.1951 31.6642 27.1971L17.0583 27.2232C16.558 27.2241 16.0751 27.0427 15.7034 26.7142L9.55042 21.2769ZM17.1373 19.8098C17.1357 18.9165 16.3962 18.1936 15.4857 18.1953C14.5752 18.1969 13.8384 18.9224 13.8401 19.8157C13.8417 20.709 14.5812 21.4318 15.4917 21.4302C16.4022 21.4285 17.139 20.7031 17.1373 19.8098Z" fill="#5472EF"/>
<g id="Rp">
<path d="M20.1222 21.6032L20.1134 16.9015L22.0042 16.8981C22.3661 16.8974 22.6751 16.9604 22.9312 17.087C23.1889 17.212 23.385 17.39 23.5196 17.6208C23.6557 17.8502 23.7241 18.1202 23.7247 18.4309C23.7252 18.7431 23.6571 19.0119 23.5202 19.2371C23.3834 19.4608 23.1848 19.6326 22.9245 19.7524C22.6657 19.8723 22.3523 19.9325 21.9841 19.9332L20.7181 19.9354L20.7166 19.1365L21.8188 19.1345C22.0123 19.1342 22.1729 19.1079 22.3007 19.0556C22.4285 19.0033 22.5236 18.9251 22.5858 18.8209C22.6495 18.7167 22.6813 18.5873 22.681 18.4328C22.6807 18.2766 22.6485 18.1451 22.5843 18.0381C22.5217 17.931 22.4256 17.8501 22.296 17.7952C22.168 17.7388 22.0065 17.7108 21.8115 17.7111L21.1282 17.7124L21.1354 21.6014L20.1222 21.6032ZM22.7063 19.4589L23.9014 21.5965L22.7828 21.5985L21.6135 19.4609L22.7063 19.4589Z" fill="#FFCB71"/>
<path d="M24.5621 22.9177L24.5531 18.069L25.5359 18.0672L25.537 18.6595L25.5815 18.6595C25.625 18.5645 25.688 18.4679 25.7705 18.3698C25.8546 18.2702 25.9636 18.1874 26.0977 18.1213C26.2333 18.0537 26.4017 18.0198 26.6029 18.0194C26.865 18.0189 27.1069 18.0858 27.3287 18.2201C27.5505 18.3529 27.7279 18.5538 27.861 18.823C27.9941 19.0906 28.0611 19.4264 28.0618 19.8305C28.0625 20.2238 27.9984 20.5561 27.8694 20.8272C27.742 21.0968 27.5677 21.3014 27.3464 21.4411C27.1267 21.5792 26.8803 21.6486 26.6073 21.649C26.4139 21.6494 26.2492 21.6183 26.1134 21.5558C25.9791 21.4933 25.869 21.4147 25.783 21.3199C25.697 21.2237 25.6313 21.1266 25.5859 21.0287L25.5555 21.0288L25.559 22.9159L24.5621 22.9177ZM25.5322 19.8304C25.5326 20.0401 25.5626 20.2229 25.6221 20.3789C25.6817 20.5349 25.7677 20.6565 25.8802 20.7435C25.9927 20.829 26.1293 20.8716 26.29 20.8713C26.4522 20.871 26.5894 20.8272 26.7016 20.7397C26.8137 20.6508 26.8985 20.5282 26.956 20.372C27.015 20.2142 27.0443 20.0328 27.0439 19.8277C27.0435 19.6241 27.0143 19.4451 26.9563 19.2906C26.8983 19.1362 26.813 19.0154 26.7006 18.9284C26.5881 18.8413 26.4499 18.7979 26.2861 18.7982C26.1239 18.7985 25.9867 18.8409 25.8745 18.9252C25.7639 19.0096 25.6791 19.1291 25.6201 19.2838C25.5611 19.4385 25.5318 19.6207 25.5322 19.8304Z" fill="#FFCB71"/>
</g>
</g>
</g>
</g>
</svg>
