<svg width="41" height="40" viewBox="0 0 41 40" fill="none" xmlns="http://www.w3.org/2000/svg">
<g id="Frame 34783">
<rect x="0.333374" width="40" height="40" rx="20" fill="#DCEDFF"/>
<g id="Group 37911">
<g id="Group 37923">
<circle id="Ellipse 2128" cx="21.3334" cy="19.7463" r="6.97187" fill="#F27676"/>
<circle id="Ellipse 2127" cx="19.3334" cy="19.7463" r="6.97187" fill="#FFCB71"/>
<g id="Rp">
<path d="M16.0526 21.4227V17.4638H17.6146C17.9136 17.4638 18.1687 17.5173 18.3801 17.6243C18.5927 17.7299 18.7544 17.8801 18.8653 18.0747C18.9774 18.268 19.0334 18.4954 19.0334 18.757C19.0334 19.0199 18.9767 19.2461 18.8633 19.4355C18.7499 19.6237 18.5856 19.768 18.3704 19.8686C18.1565 19.9691 17.8974 20.0193 17.5933 20.0193H16.5475V19.3466H17.458C17.6178 19.3466 17.7505 19.3247 17.8562 19.2809C17.9619 19.2371 18.0405 19.1714 18.092 19.0837C18.1449 18.9961 18.1713 18.8872 18.1713 18.757C18.1713 18.6256 18.1449 18.5148 18.092 18.4245C18.0405 18.3343 17.9612 18.266 17.8543 18.2196C17.7486 18.172 17.6152 18.1481 17.4541 18.1481H16.8897V21.4227H16.0526ZM18.1906 19.6211L19.1746 21.4227H18.2505L17.2879 19.6211H18.1906Z" fill="#5472EF"/>
<path d="M19.7184 22.5362V18.4535H20.5303V18.9523H20.567C20.6031 18.8724 20.6553 18.7912 20.7236 18.7087C20.7932 18.6249 20.8834 18.5553 20.9942 18.4999C21.1063 18.4432 21.2455 18.4149 21.4117 18.4149C21.6283 18.4149 21.828 18.4716 22.011 18.585C22.194 18.6971 22.3403 18.8666 22.4498 19.0934C22.5594 19.3189 22.6141 19.6018 22.6141 19.942C22.6141 20.2732 22.5606 20.5529 22.4537 20.781C22.348 21.0078 22.2037 21.1798 22.0207 21.2971C21.839 21.4131 21.6353 21.4711 21.4098 21.4711C21.25 21.4711 21.1141 21.4447 21.0019 21.3918C20.8911 21.339 20.8003 21.2726 20.7294 21.1927C20.6585 21.1115 20.6044 21.0297 20.567 20.9472H20.5419V22.5362H19.7184ZM20.5245 19.9381C20.5245 20.1147 20.549 20.2687 20.5979 20.4001C20.6469 20.5316 20.7178 20.6341 20.8106 20.7075C20.9033 20.7797 21.0161 20.8158 21.1488 20.8158C21.2829 20.8158 21.3963 20.779 21.4891 20.7056C21.5819 20.6308 21.6521 20.5277 21.6998 20.3963C21.7487 20.2635 21.7732 20.1108 21.7732 19.9381C21.7732 19.7667 21.7494 19.616 21.7017 19.4858C21.654 19.3556 21.5838 19.2538 21.491 19.1804C21.3982 19.1069 21.2842 19.0702 21.1488 19.0702C21.0148 19.0702 20.9014 19.1056 20.8086 19.1765C20.7171 19.2474 20.6469 19.3479 20.5979 19.4781C20.549 19.6082 20.5245 19.7616 20.5245 19.9381Z" fill="#5472EF"/>
</g>
</g>
<g id="Group 37909">
<path id="Ellipse 2128_2" d="M31.8539 14.4478C29.856 10.1622 25.5095 7.19202 20.4692 7.19202C15.429 7.19202 11.0825 10.1622 9.08453 14.4478" stroke="#5472EF" strokeWidth="1.3" strokeLinejoin="round"/>
<path id="Vector 4800" d="M12.2328 13.1165L8.88747 14.8563L7.99938 11.2502" stroke="#5472EF" strokeWidth="1.3" strokeLinecap="round" strokeLinejoin="round"/>
</g>
<g id="Group 37910">
<path id="Ellipse 2128_3" d="M8.8128 25.5523C10.8107 29.8378 15.1573 32.808 20.1975 32.808C25.2378 32.808 29.5843 29.8378 31.5822 25.5523" stroke="#5472EF" strokeWidth="1.3" strokeLinejoin="round"/>
<path id="Vector 4800_2" d="M28.4339 26.8835L31.7793 25.1437L32.6674 28.7499" stroke="#5472EF" strokeWidth="1.3" strokeLinecap="round" strokeLinejoin="round"/>
</g>
</g>
</g>
</svg>
