<svg width="42" height="40" viewBox="0 0 42 40" fill="none" xmlns="http://www.w3.org/2000/svg">
<g id="Frame 34776">
<rect x="0.38562" width="40.7713" height="40" rx="20" fill="#DCEDFF"/>
<g id="Group 37931">
<g id="Group 37933">
<rect id="Rectangle 6466" x="7.09802" y="13.647" width="28.4555" height="18" rx="1" fill="#5472EF"/>
<g id="Group 37930">
<rect id="Rectangle 6467" x="12.0706" y="20.8178" width="3.35369" height="8.53664" rx="1.67685" fill="white"/>
<rect id="Rectangle 6468" x="19.6489" y="17.6674" width="3.35369" height="11.6871" rx="1.67685" fill="white"/>
<rect id="Rectangle 6469" x="27.2273" y="16.0438" width="3.35369" height="13.3106" rx="1.67685" fill="#22C1CB"/>
</g>
</g>
<g id="Group 37932">
<path id="Intersect" d="M10.1666 21.4324C13.5171 21.4324 16.2333 18.7163 16.2333 15.3657C16.2333 14.7688 16.1471 14.1919 15.9864 13.647H8.09802C7.54574 13.647 7.09802 14.0947 7.09802 14.647V20.6003C7.99827 21.1291 9.04703 21.4324 10.1666 21.4324Z" fill="#222E60"/>
<circle id="Ellipse 2127" cx="11.2844" cy="14.4196" r="6.06667" fill="#FFCB71"/>
<g id="Rp">
<path d="M8.00366 15.8424V11.8834H9.56559C9.86457 11.8834 10.1197 11.9369 10.3311 12.0439C10.5437 12.1495 10.7055 12.2997 10.8163 12.4943C10.9284 12.6876 10.9845 12.915 10.9845 13.1767C10.9845 13.4395 10.9278 13.6657 10.8144 13.8552C10.7009 14.0433 10.5366 14.1876 10.3214 14.2882C10.1075 14.3887 9.84846 14.4389 9.54432 14.4389H8.49853V13.7662H9.40901C9.56881 13.7662 9.70155 13.7443 9.80722 13.7005C9.9129 13.6567 9.99151 13.591 10.0431 13.5033C10.0959 13.4157 10.1223 13.3068 10.1223 13.1767C10.1223 13.0452 10.0959 12.9344 10.0431 12.8442C9.99151 12.754 9.91225 12.6856 9.80529 12.6393C9.69961 12.5916 9.56623 12.5677 9.40514 12.5677H8.84068V15.8424H8.00366ZM10.1416 14.0407L11.1256 15.8424H10.2016L9.2389 14.0407H10.1416Z" fill="#F27676"/>
<path d="M11.6694 16.9558V12.8732H12.4813V13.3719H12.518C12.5541 13.292 12.6063 13.2108 12.6746 13.1283C12.7442 13.0446 12.8344 12.975 12.9452 12.9196C13.0573 12.8628 13.1965 12.8345 13.3628 12.8345C13.5793 12.8345 13.779 12.8912 13.962 13.0046C14.145 13.1167 14.2913 13.2862 14.4008 13.513C14.5104 13.7385 14.5651 14.0214 14.5651 14.3616C14.5651 14.6928 14.5117 14.9725 14.4047 15.2006C14.299 15.4274 14.1547 15.5994 13.9717 15.7167C13.79 15.8327 13.5864 15.8907 13.3608 15.8907C13.201 15.8907 13.0651 15.8643 12.953 15.8114C12.8421 15.7586 12.7513 15.6922 12.6804 15.6123C12.6095 15.5311 12.5554 15.4493 12.518 15.3668H12.4929V16.9558H11.6694ZM12.4755 14.3578C12.4755 14.5343 12.5 14.6883 12.5489 14.8198C12.5979 14.9512 12.6688 15.0537 12.7616 15.1271C12.8544 15.1993 12.9671 15.2354 13.0999 15.2354C13.2339 15.2354 13.3473 15.1986 13.4401 15.1252C13.5329 15.0504 13.6031 14.9473 13.6508 14.8159C13.6998 14.6832 13.7243 14.5304 13.7243 14.3578C13.7243 14.1864 13.7004 14.0356 13.6527 13.9054C13.605 13.7753 13.5348 13.6735 13.442 13.6C13.3492 13.5265 13.2352 13.4898 13.0999 13.4898C12.9658 13.4898 12.8524 13.5252 12.7596 13.5961C12.6681 13.667 12.5979 13.7675 12.5489 13.8977C12.5 14.0278 12.4755 14.1812 12.4755 14.3578Z" fill="#F27676"/>
</g>
</g>
</g>
</g>
</svg>
