<svg width="42" height="40" viewBox="0 0 42 40" fill="none" xmlns="http://www.w3.org/2000/svg">
<g id="Frame 34788">
<rect x="0.250061" width="40.7713" height="40" rx="20" fill="#DCEDFF"/>
<path id="Rectangle 6406" d="M28.296 8.16606H11.6671C11.1148 8.16606 10.6671 8.61378 10.6671 9.16606V30.197C10.6671 31.0229 11.6116 31.4928 12.2703 30.9946L12.7702 30.6165C13.097 30.3694 13.5414 30.3465 13.8917 30.5588L16.0934 31.8931C16.412 32.0861 16.8114 32.0861 17.1299 31.8931L19.3937 30.5212C19.7122 30.3282 20.1117 30.3282 20.4302 30.5212L22.6939 31.8931C23.0125 32.0861 23.4119 32.0861 23.7305 31.8931L25.9473 30.5496C26.2901 30.3419 26.7237 30.3589 27.0491 30.5928L27.7125 31.0694C28.3741 31.5448 29.296 31.0719 29.296 30.2573V19.6866V12.4971V9.16606C29.296 8.61378 28.8483 8.16606 28.296 8.16606Z" fill="#5472EF"/>
<g id="Group 37938">
<path id="Intersect" d="M29.296 24.8622C28.184 23.5927 26.551 22.791 24.7307 22.791C21.3801 22.791 18.664 25.5071 18.664 28.8577C18.664 29.528 18.7727 30.173 18.9735 30.7758L19.3936 30.5212C19.7122 30.3282 20.1116 30.3282 20.4302 30.5212L22.6939 31.8931C23.0125 32.0861 23.4119 32.0861 23.7304 31.8931L25.9473 30.5496C26.29 30.3419 26.7236 30.3589 27.0491 30.5927L27.7125 31.0694C28.3741 31.5447 29.296 31.0719 29.296 30.2573V24.8622Z" fill="#222E60"/>
<circle id="Ellipse 2127" cx="26.3167" cy="28.8577" r="6.06667" fill="#22C1CB"/>
<path id="Vector 4870" d="M24.2202 28.7765L25.7351 30.2914L28.4132 27.4239" stroke="#222E60" strokeWidth="1.3" strokeLinecap="round" strokeLinejoin="round"/>
</g>
<path id="Vector 4787" d="M13.6667 13.5444H16.3017" stroke="white" strokeLinecap="round"/>
<g id="Group 37900">
<path id="Vector 4788" d="M13.6667 18.5471H16.3017" stroke="white" strokeLinecap="round"/>
<path id="Vector 4789" d="M18.664 18.5471H21.299" stroke="#98AAF5" strokeLinecap="round"/>
<path id="Vector 4790" d="M13.6667 21.5471H16.3017" stroke="white" strokeLinecap="round"/>
<path id="Vector 4791" d="M18.664 21.5471H21.299" stroke="#98AAF5" strokeLinecap="round"/>
</g>
<g id="Rp">
<path d="M21.2991 13.9671V10.0082H22.861C23.16 10.0082 23.4151 10.0617 23.6265 10.1686C23.8391 10.2743 24.0009 10.4244 24.1117 10.619C24.2238 10.8123 24.2799 11.0398 24.2799 11.3014C24.2799 11.5643 24.2232 11.7905 24.1098 11.9799C23.9964 12.1681 23.832 12.3124 23.6168 12.4129C23.4029 12.5134 23.1439 12.5637 22.8397 12.5637H21.7939V11.891H22.7044C22.8642 11.891 22.997 11.8691 23.1026 11.8253C23.2083 11.7815 23.2869 11.7157 23.3385 11.6281C23.3913 11.5405 23.4177 11.4316 23.4177 11.3014C23.4177 11.17 23.3913 11.0591 23.3385 10.9689C23.2869 10.8787 23.2077 10.8104 23.1007 10.764C22.995 10.7163 22.8616 10.6925 22.7006 10.6925H22.1361V13.9671H21.2991ZM23.4371 12.1655L24.421 13.9671H23.497L22.5343 12.1655H23.4371Z" fill="#FFCB71"/>
<path d="M24.9648 15.0806V10.9979H25.7767V11.4966H25.8134C25.8495 11.4167 25.9017 11.3356 25.97 11.2531C26.0396 11.1693 26.1298 11.0997 26.2406 11.0443C26.3528 10.9876 26.4919 10.9593 26.6582 10.9593C26.8747 10.9593 27.0744 11.016 27.2574 11.1294C27.4404 11.2415 27.5867 11.4109 27.6962 11.6378C27.8058 11.8633 27.8606 12.1462 27.8606 12.4864C27.8606 12.8176 27.8071 13.0972 27.7001 13.3253C27.5944 13.5522 27.4501 13.7242 27.2671 13.8415C27.0854 13.9575 26.8818 14.0154 26.6562 14.0154C26.4964 14.0154 26.3605 13.989 26.2484 13.9362C26.1375 13.8834 26.0467 13.817 25.9758 13.7371C25.9049 13.6559 25.8508 13.5741 25.8134 13.4916H25.7883V15.0806H24.9648ZM25.7709 12.4825C25.7709 12.6591 25.7954 12.8131 25.8444 12.9445C25.8933 13.076 25.9642 13.1784 26.057 13.2519C26.1498 13.324 26.2625 13.3601 26.3953 13.3601C26.5293 13.3601 26.6427 13.3234 26.7355 13.2499C26.8283 13.1752 26.8985 13.0721 26.9462 12.9407C26.9952 12.8079 27.0197 12.6552 27.0197 12.4825C27.0197 12.3111 26.9958 12.1603 26.9481 12.0302C26.9005 11.9 26.8302 11.7982 26.7374 11.7247C26.6446 11.6513 26.5306 11.6146 26.3953 11.6146C26.2613 11.6146 26.1478 11.65 26.0551 11.7209C25.9636 11.7918 25.8933 11.8923 25.8444 12.0224C25.7954 12.1526 25.7709 12.306 25.7709 12.4825Z" fill="#FFCB71"/>
</g>
</g>
</svg>
