<svg width="40" height="40" viewBox="0 0 40 40" fill="none" xmlns="http://www.w3.org/2000/svg">
<g id="Frame 34839">
<rect width="40" height="40" rx="20" fill="#DCEDFF"/>
<g id="Group 37913">
<g id="Group 37912">
<rect id="Rectangle 6463" x="6.44189" y="13.0804" width="25.7374" height="16.8744" rx="1" fill="#5472EF"/>
<rect id="Rectangle 6465" x="6.44189" y="13.0804" width="25.7374" height="16.8744" rx="1" fill="#5472EF"/>
<circle id="Ellipse 1933" cx="27.6539" cy="25.8938" r="2.09081" fill="#FFCB71"/>
<circle id="Ellipse 1934" cx="24.6593" cy="25.8938" r="2.09081" fill="#C2DEFF"/>
<rect id="Rectangle 6464" x="6.44189" y="16.1119" width="25.7374" height="3.88871" fill="#435BBF"/>
</g>
<g id="Group 37899">
<g id="Group 37898">
<path id="Intersect" d="M24.3833 13.0804H31.1793C31.7316 13.0804 32.1793 13.5281 32.1793 14.0804V21.8314C31.3604 22.2435 30.4354 22.4754 29.4562 22.4754C26.1057 22.4754 23.3895 19.7593 23.3895 16.4088C23.3895 15.1797 23.755 14.036 24.3833 13.0804Z" fill="#222E60"/>
<circle id="Ellipse 2127" cx="28.6352" cy="15.4509" r="6.06667" fill="#EF5454"/>
<g id="Group 37897">
<path id="Vector 4784" d="M30.5634 13.5226L26.7069 17.3791" stroke="white" strokeWidth="1.3" strokeLinecap="round" strokeLinejoin="round"/>
<path id="Vector 4785" d="M26.7069 13.5226L30.5634 17.3791" stroke="white" strokeWidth="1.3" strokeLinecap="round" strokeLinejoin="round"/>
</g>
</g>
</g>
</g>
</g>
</svg>
