<svg width="24" height="25" viewBox="0 0 24 25" fill="none" xmlns="http://www.w3.org/2000/svg">
<path d="M7.47656 21.5431H16.3181V7.3464C16.3181 7.04201 16.1795 6.75419 15.9415 6.56445L12.5207 3.83754C12.156 3.54681 11.6387 3.54681 11.274 3.83754L7.85322 6.56445C7.6152 6.75419 7.47656 7.04201 7.47656 7.3464V21.5431Z" stroke="#203551" strokeWidth="1.3" stroke-miterlimit="10" strokeLinecap="round" strokeLinejoin="round"/>
<path d="M18.7106 10.0906H19.4258C19.9781 10.0906 20.4258 10.5384 20.4258 11.0906V21.5424" stroke="#203551" strokeWidth="1.3" stroke-miterlimit="10" strokeLinecap="round" strokeLinejoin="round"/>
<path d="M5.06287 10.0906H4.34766C3.79537 10.0906 3.34766 10.5384 3.34766 11.0906V21.5424" stroke="#203551" strokeWidth="1.3" stroke-miterlimit="10" strokeLinecap="round" strokeLinejoin="round"/>
<path d="M10.3711 11.9094H13.3728" stroke="#203551" strokeWidth="1.3" stroke-miterlimit="10" strokeLinecap="round" strokeLinejoin="round"/>
<path d="M10.3711 8.96564H13.3728" stroke="#203551" strokeWidth="1.3" stroke-miterlimit="10" strokeLinecap="round" strokeLinejoin="round"/>
<path d="M10.3711 14.7594H13.3728" stroke="#203551" strokeWidth="1.3" stroke-miterlimit="10" strokeLinecap="round" strokeLinejoin="round"/>
<path d="M1.38672 21.5375L22.3867 21.5375" stroke="#203551" strokeWidth="1.3" stroke-miterlimit="10" strokeLinecap="round" strokeLinejoin="round"/>
<rect x="10.4141" y="18.6782" width="2.95665" height="2.86938" stroke="#203551" strokeWidth="1.3" stroke-miterlimit="10" strokeLinecap="round" strokeLinejoin="round"/>
</svg>
