<svg width="32" height="32" viewBox="0 0 32 32" fill="none" xmlns="http://www.w3.org/2000/svg">
<circle cx="16" cy="16" r="16" fill="#FFAB36" fill-opacity="0.3"/>
<path d="M14.36 9.6193C15.1172 8.40677 16.8829 8.40677 17.6401 9.6193L18.1572 10.4472C18.4979 10.9927 19.0875 11.3332 19.7303 11.3554L20.7058 11.3892C22.1345 11.4388 23.0173 12.9679 22.3459 14.2299L21.8874 15.0917C21.5853 15.6595 21.5853 16.3403 21.8874 16.9081L22.3459 17.7699C23.0173 19.0319 22.1345 20.561 20.7058 20.6106L19.7303 20.6444C19.0875 20.6666 18.4979 21.0071 18.1572 21.5526L17.6401 22.3805C16.8829 23.593 15.1172 23.593 14.36 22.3805L13.843 21.5526C13.5023 21.0071 12.9126 20.6666 12.2698 20.6444L11.2943 20.6106C9.86565 20.561 8.98279 19.0319 9.65426 17.7699L10.1127 16.9081C10.4148 16.3403 10.4148 15.6595 10.1127 15.0917L9.65426 14.2299C8.98279 12.9679 9.86565 11.4388 11.2943 11.3892L12.2698 11.3554C12.9126 11.3332 13.5023 10.9927 13.843 10.4472L14.36 9.6193Z" stroke="#F9A837" strokeWidth="1.3" strokeLinecap="round"/>
<path d="M13.6807 15.9999C13.6807 17.281 14.7192 18.3195 16.0002 18.3195C17.2813 18.3195 18.3198 17.281 18.3198 15.9999C18.3198 14.7189 17.2813 13.6804 16.0002 13.6804" stroke="#F9A837" strokeWidth="1.3" strokeLinecap="round"/>
</svg>
