<svg width="32" height="32" viewBox="0 0 32 32" fill="none" xmlns="http://www.w3.org/2000/svg">
<circle cx="16" cy="16" r="16" fill="#2E47BA" fill-opacity="0.1"/>
<path d="M18.5151 20.8612H14.1895M21.9566 20.8612H23.1799C23.6732 20.8612 24.0731 20.4613 24.0731 19.968V17.4498C24.0731 17.2772 24.0231 17.1082 23.9291 16.9635L23.0786 15.6536H18.2272V10.5932C18.2272 10.0999 17.8273 9.7 17.3341 9.7H8.80002M10.7708 20.8612H9.69321C9.19993 20.8612 8.80005 20.4613 8.80005 19.968V12.9311" stroke="#2E47BA" strokeWidth="1.16111" stroke-miterlimit="10" strokeLinecap="round" strokeLinejoin="round"/>
<path d="M18.238 12.2365H20.5609C20.878 12.2365 21.1713 12.4046 21.3316 12.6783L23.062 15.6327" stroke="#2E47BA" strokeWidth="1.16111" stroke-miterlimit="10" strokeLinecap="round" strokeLinejoin="round"/>
<circle cx="20.2222" cy="20.8615" r="1.7071" stroke="#2E47BA" strokeWidth="1.16111" stroke-miterlimit="10" strokeLinecap="round" strokeLinejoin="round"/>
<circle cx="12.4818" cy="20.8615" r="1.7071" stroke="#2E47BA" strokeWidth="1.16111" stroke-miterlimit="10" strokeLinecap="round" strokeLinejoin="round"/>
</svg>
