<svg width="24" height="24" viewBox="0 0 24 24" fill="none" xmlns="http://www.w3.org/2000/svg">
<rect width="24" height="24" rx="3" fill="white"/>
<path fill-rule="evenodd" clip-rule="evenodd" d="M9.42448 20C12.3885 20 14.8045 19.7733 14.8045 19.4967C14.8045 19.2202 12.3885 18.9879 9.42448 18.9879C6.46042 18.9879 4.04443 19.2147 4.04443 19.4912C4.04443 19.7678 6.46042 20 9.42448 20Z" fill="#CAC9C9"/>
<path fill-rule="evenodd" clip-rule="evenodd" d="M9.12839 4.04425L19.318 8.31955C19.6089 8.44122 19.7487 8.7786 19.6256 9.07173L15.297 19.1488C15.174 19.4364 14.8328 19.5747 14.5364 19.453L4.35234 15.1722C4.06152 15.0505 3.92171 14.7131 4.04475 14.42L8.3678 4.34845C8.49643 4.06084 8.83758 3.92258 9.12839 4.04425Z" fill="#921D26"/>
<path fill-rule="evenodd" clip-rule="evenodd" d="M19.061 8.86206C19.0834 8.91737 19.0834 8.97821 19.061 9.03351L14.8778 18.7787C14.8275 18.8894 14.6988 18.9447 14.5814 18.8949L4.72728 14.7579C4.67136 14.7357 4.62662 14.6915 4.60425 14.6362L19.061 8.86206Z" fill="#70161E"/>
<path fill-rule="evenodd" clip-rule="evenodd" d="M9.13962 4.9348L18.6694 8.93355C18.7253 8.95568 18.7532 9.02205 18.7309 9.08289L14.6819 18.5018C14.6595 18.5571 14.5924 18.5848 14.5309 18.5626L5.00113 14.5639C4.9452 14.5418 4.91724 14.4754 4.93961 14.4146L8.98863 4.99011C9.011 4.9348 9.07811 4.90715 9.13962 4.9348Z" fill="#D5232B"/>
<path fill-rule="evenodd" clip-rule="evenodd" d="M18.7266 8.99402C18.7378 9.02167 18.7378 9.04933 18.7266 9.08251L14.6832 18.5014C14.6608 18.5567 14.5937 18.5844 14.5322 18.5623L5.00244 14.5635C4.97447 14.5525 4.9521 14.5303 4.94092 14.5027L18.7266 8.99402Z" fill="#A11F24"/>
<path fill-rule="evenodd" clip-rule="evenodd" d="M16.9754 9.27747L11.064 12.2254L10.4768 9.60931L16.9754 9.27747Z" fill="white"/>
<path fill-rule="evenodd" clip-rule="evenodd" d="M6.83911 14.3307L12.7505 11.3828L13.3377 13.9933L6.83911 14.3307Z" fill="#E6E6E6"/>
<path fill-rule="evenodd" clip-rule="evenodd" d="M11.0623 12.2235L12.7512 11.3828L12.8742 11.9359L11.0623 12.2235Z" fill="#B3B3B3"/>
</svg>
