<svg width="13" height="12" viewBox="0 0 13 12" fill="none" xmlns="http://www.w3.org/2000/svg">
<path opacity="0.4" d="M6.75 12C10.0637 12 12.75 9.42114 12.75 6.23998C12.75 3.05882 10.0637 0.47998 6.75 0.47998C3.43629 0.47998 0.75 3.05882 0.75 6.23998C0.75 9.42114 3.43629 12 6.75 12Z" fill="#00A3FF"/>
<path d="M6.94776 9.11984C6.83976 9.1544 6.65376 9.1544 6.54576 9.11984C5.60976 8.81456 3.50977 7.53008 3.50977 5.3528C3.50977 4.39087 4.31377 3.61328 5.30977 3.61328C5.89777 3.61328 6.41976 3.884 6.74976 4.31024C7.07376 3.88976 7.60176 3.61328 8.18976 3.61328C9.18576 3.61328 9.98976 4.39087 9.98976 5.3528C9.98976 7.53008 7.88976 8.81456 6.94776 9.11984Z" fill="#00A3FF"/>
</svg>
