<svg width="12" height="12" viewBox="0 0 12 12" fill="none" xmlns="http://www.w3.org/2000/svg">
<path d="M0.791992 4.0494L2.98836 5.36652C3.47397 5.65773 4.10427 5.48803 4.37802 4.99237L5.92061 2.19934L7.4632 4.99237C7.73695 5.48803 8.36725 5.65773 8.85286 5.36652L11.0492 4.0494L8.96625 10.6091H2.87497L0.791992 4.0494Z" fill="#FFCD00"/>
<mask id="mask0_992_1049" style="mask-type:alpha" maskUnits="userSpaceOnUse" x="0" y="2" width="12" height="9">
<path d="M0.791992 4.0494L2.98836 5.36652C3.47397 5.65773 4.10427 5.48803 4.37802 4.99237L5.92061 2.19934L7.4632 4.99237C7.73695 5.48803 8.36725 5.65773 8.85286 5.36652L11.0492 4.0494L8.96625 10.6091H2.87497L0.791992 4.0494Z" fill="#FFCD00"/>
</mask>
<g mask="url(#mask0_992_1049)">
<rect x="0.791992" y="9.02393" width="9.96584" height="2.12366" fill="#FFAD00"/>
</g>
<circle cx="5.94297" cy="2.31687" r="0.92783" fill="#FFAD00"/>
<circle cx="0.950097" cy="3.99661" r="0.751367" fill="#FFAD00"/>
<circle cx="11.0492" cy="3.99661" r="0.751367" fill="#FFAD00"/>
</svg>
