<svg width="12" height="12" viewBox="0 0 12 12" fill="none" xmlns="http://www.w3.org/2000/svg">
<path d="M0.974609 0.625977H4.32346L7.23008 6.50309H3.88123L0.974609 0.625977Z" fill="#418B5A"/>
<path d="M11.0254 0.625977H7.67654L4.76992 6.50309H8.11877L11.0254 0.625977Z" fill="#418B5A"/>
<circle cx="5.99983" cy="7.32698" r="4.0472" fill="#59B277"/>
<circle cx="5.99993" cy="7.32769" r="2.93743" fill="#418B5A"/>
<path d="M5.76199 5.59065C5.83683 5.36032 6.16268 5.36032 6.23752 5.59065L6.49784 6.39184C6.53131 6.49484 6.6273 6.56458 6.73561 6.56458H7.57802C7.82021 6.56458 7.9209 6.87449 7.72497 7.01684L7.04344 7.512C6.95582 7.57566 6.91915 7.6885 6.95262 7.79151L7.21294 8.59269C7.28778 8.82302 7.02416 9.01455 6.82823 8.8722L6.1467 8.37704C6.05908 8.31338 5.94043 8.31338 5.85281 8.37704L5.17128 8.8722C4.97535 9.01455 4.71173 8.82302 4.78657 8.59269L5.04689 7.79151C5.08036 7.6885 5.04369 7.57566 4.95607 7.512L4.27454 7.01684C4.07861 6.87449 4.17931 6.56458 4.42149 6.56458H5.26391C5.37221 6.56458 5.4682 6.49484 5.50167 6.39184L5.76199 5.59065Z" fill="#59B277"/>
</svg>
