<svg width="12" height="12" viewBox="0 0 12 12" fill="none" xmlns="http://www.w3.org/2000/svg">
<g id="Group 38412">
<mask id="mask0_992_730" style="mask-type:alpha" maskUnits="userSpaceOnUse" x="0" y="0" width="12" height="12">
<rect id="Rectangle 6424" width="12" height="12" fill="#D9D9D9"/>
</mask>
<g mask="url(#mask0_992_730)">
</g>
<mask id="mask1_992_730" style="mask-type:alpha" maskUnits="userSpaceOnUse" x="2" y="0" width="9" height="12">
<path id="Subtract" fill-rule="evenodd" clip-rule="evenodd" d="M7.72214 2.90071C7.20923 2.12376 6.9358 1.21327 6.9358 0.282288C6.9358 0.282288 4.82318 1.73345 4.31951 3.01983C3.85157 4.21491 4.83467 4.99355 4.97656 5.09804C5.64129 5.40059 6.09864 6.03273 6.09864 6.76354C6.09864 7.78836 5.19931 8.61913 4.08994 8.61913C3.157 8.61913 2.37261 8.03159 2.14671 7.2352C1.59107 9.38503 3.17713 11.7155 5.63331 11.7155H6.26907C9.3865 11.7155 11.2523 8.24808 9.53478 5.64645L7.72214 2.90071Z" fill="#F06537"/>
</mask>
<g mask="url(#mask1_992_730)">
<path id="Subtract_2" fill-rule="evenodd" clip-rule="evenodd" d="M7.72214 2.90065C7.20923 2.1237 6.9358 1.21321 6.9358 0.282227C6.9358 0.282227 4.82318 1.73339 4.31951 3.01977C3.85157 4.21485 4.83467 4.99348 4.97656 5.09798C5.64129 5.40053 6.09864 6.03267 6.09864 6.76348C6.09864 7.78829 5.19931 8.61907 4.08994 8.61907C3.157 8.61907 2.37261 8.03152 2.14671 7.23514C1.59107 9.38497 3.17713 11.7155 5.63331 11.7155H6.26907C9.3865 11.7155 11.2523 8.24802 9.53478 5.64639L7.72214 2.90065Z" fill="#E62424"/>
<path id="Subtract_3" d="M5.14709 1.28418C5.14709 2.15447 5.4027 3.0056 5.88217 3.73189L7.57663 6.29862C9.18217 8.73064 7.43802 11.972 4.52383 11.972H3.92952C1.17884 11.972 -0.404446 8.84533 1.22349 6.6281L3.33127 5.79721C3.33127 5.79721 2.23053 5.04575 2.70137 3.84325C3.17221 2.64074 5.14709 1.28418 5.14709 1.28418Z" fill="#C51616"/>
</g>
</g>
</svg>
