<svg width="31" height="22" viewBox="0 0 31 22" fill="none" xmlns="http://www.w3.org/2000/svg">
<rect width="31" height="22" rx="3" fill="#0060AF"/>
<path fill-rule="evenodd" clip-rule="evenodd" d="M6.37592 13.1068C6.37592 12.8116 6.37934 12.0224 6.37157 11.9251C6.37834 10.7508 5.46668 9.92235 4.89073 9.98693C4.49219 10.0193 4.15811 10.1715 3.97884 10.6094C3.81256 11.0174 3.96123 11.5602 4.51386 11.6876C5.10472 11.8243 5.44985 11.9381 5.69957 12.0987C6.00555 12.2952 6.25534 12.6708 6.26197 13.1073" fill="white"/>
<path fill-rule="evenodd" clip-rule="evenodd" d="M6.12926 13.1082C6.13119 12.7298 5.90564 12.3951 5.61085 12.2152C5.34937 12.0563 4.99832 11.9519 4.432 11.8173C4.25694 11.7754 4.07382 11.6822 4.01713 11.5635C3.86717 11.705 3.83993 12.0232 3.86632 12.2092C3.89698 12.4243 4.16545 12.7789 4.56969 12.7928C4.81656 12.8021 5.12867 12.743 5.27835 12.7133C5.53655 12.661 5.94507 12.8125 6.01011 13.1078" fill="white"/>
<path fill-rule="evenodd" clip-rule="evenodd" d="M6.58498 8.15723C5.8995 8.15723 5.30751 8.58058 5.30958 9.31315C5.31171 9.92919 5.84067 10.259 6.0295 10.4945C6.31473 10.8495 6.46911 11.2696 6.48508 11.9125C6.49763 12.4242 6.49699 12.9294 6.49977 13.1085H6.65101C6.64845 12.9211 6.6416 12.3848 6.64937 11.8967C6.65964 11.2536 6.81958 10.8495 7.10496 10.4945C7.29542 10.259 7.82388 9.92919 7.82502 9.31315C7.82766 8.58058 7.23588 8.15723 6.55111 8.15723" fill="white"/>
<path fill-rule="evenodd" clip-rule="evenodd" d="M6.75864 13.1068C6.75864 12.8116 6.75508 12.0224 6.76271 11.9251C6.75601 10.7508 7.6671 9.92235 8.24355 9.98693C8.64209 10.0193 8.97574 10.1715 9.15558 10.6094C9.32165 11.0174 9.17219 11.5602 8.62027 11.6876C8.02899 11.8243 7.68436 11.9381 7.434 12.0987C7.12837 12.2952 6.89605 12.6708 6.88892 13.1073" fill="white"/>
<path fill-rule="evenodd" clip-rule="evenodd" d="M7.00539 13.1082C7.00325 12.7298 7.22872 12.3951 7.52265 12.2152C7.78528 12.0563 8.13668 11.9519 8.7025 11.8173C8.87792 11.7754 9.06082 11.6822 9.11652 11.5635C9.26719 11.705 9.29443 12.0232 9.26797 12.2092C9.23674 12.4243 8.96891 12.7789 8.56538 12.7928C8.31866 12.8021 8.00483 12.743 7.8558 12.7133C7.59859 12.661 7.18893 12.8125 7.12361 13.1078" fill="white"/>
<path fill-rule="evenodd" clip-rule="evenodd" d="M7.21703 14.3288L7.12939 13.7294L7.34111 13.6993C7.39259 13.6928 7.45534 13.7012 7.48044 13.7314C7.50818 13.763 7.51667 13.7891 7.52201 13.8305C7.53007 13.8818 7.51424 13.941 7.45263 13.9705V13.9723C7.52137 13.9723 7.56294 14.0186 7.57507 14.0967C7.57678 14.1133 7.58205 14.1531 7.57678 14.1863C7.5628 14.2655 7.51246 14.291 7.42732 14.3022L7.21703 14.3288ZM7.35319 14.2217C7.37829 14.2183 7.40374 14.2171 7.42364 14.2052C7.45416 14.1865 7.45138 14.1467 7.4471 14.1171C7.43654 14.0521 7.41843 14.0273 7.34477 14.0375L7.29842 14.0442L7.3278 14.225L7.35319 14.2217ZM7.30917 13.9443C7.3372 13.9401 7.37513 13.9369 7.39096 13.912C7.39931 13.8953 7.40986 13.8821 7.40287 13.8451C7.39424 13.8013 7.37877 13.774 7.31923 13.7846L7.26382 13.7929L7.28571 13.9465L7.30917 13.9443Z" fill="white"/>
<path fill-rule="evenodd" clip-rule="evenodd" d="M8.13419 13.9697C8.13583 13.9809 8.13776 13.9933 8.13847 14.0044C8.15559 14.1137 8.13419 14.2043 8.00299 14.2292C7.80896 14.2641 7.77181 14.1513 7.73772 13.9933L7.71954 13.9077C7.6928 13.7566 7.68132 13.6421 7.87043 13.6068C7.97703 13.5886 8.04748 13.6284 8.07679 13.7278C8.08136 13.7426 8.08706 13.7572 8.0892 13.7722L7.97318 13.7946C7.95978 13.7572 7.94202 13.6905 7.88982 13.6961C7.79613 13.7067 7.82707 13.8158 7.8367 13.8615L7.87157 14.0256C7.88205 14.0752 7.90287 14.1545 7.98395 14.1392C8.04977 14.1269 8.02103 14.0308 8.01518 13.9914" fill="white"/>
<path fill-rule="evenodd" clip-rule="evenodd" d="M8.32035 14.1502L8.28027 13.5299L8.43608 13.4854L8.76288 14.0248L8.64016 14.0592L8.56272 13.9221L8.42645 13.9605L8.44407 14.1163L8.32035 14.1502ZM8.41493 13.8604L8.5134 13.8336L8.38263 13.5827L8.41493 13.8604Z" fill="white"/>
<path fill-rule="evenodd" clip-rule="evenodd" d="M4.47026 13.6815C4.51903 13.5353 4.56268 13.4275 4.74886 13.4754C4.84848 13.5015 4.91023 13.5425 4.9073 13.6509C4.90681 13.675 4.89832 13.6997 4.89276 13.7235L4.77688 13.6935C4.79207 13.6336 4.8017 13.5862 4.72297 13.5635C4.63199 13.5401 4.60981 13.6435 4.59726 13.6881L4.55013 13.8506C4.53515 13.8989 4.51718 13.9787 4.59726 13.9994C4.66343 14.016 4.70351 13.9552 4.72747 13.8664L4.64646 13.8462L4.67449 13.7522L4.86509 13.8096L4.7746 14.123L4.68689 14.1007L4.70665 14.0344H4.70415C4.66372 14.0887 4.61452 14.0943 4.57137 14.0865C4.38077 14.0383 4.40066 13.9216 4.44616 13.7657" fill="white"/>
<path fill-rule="evenodd" clip-rule="evenodd" d="M5.17929 13.9466L5.12188 14.2016L4.99268 14.1755L5.13037 13.5801L5.35064 13.6266C5.47956 13.6527 5.5185 13.7064 5.50024 13.8172C5.48983 13.8807 5.45639 13.9491 5.37474 13.9435L5.37389 13.9425C5.44291 13.9651 5.44876 13.9978 5.43671 14.0541C5.4315 14.0781 5.39563 14.2236 5.42038 14.2471L5.42123 14.265L5.28753 14.2322C5.28197 14.192 5.30094 14.1194 5.30843 14.0792C5.31591 14.0437 5.32796 13.9936 5.28946 13.9748C5.25937 13.9598 5.2481 13.9605 5.21401 13.9532L5.17929 13.9466ZM5.20135 13.8541L5.28834 13.8761C5.34118 13.8833 5.37056 13.8577 5.38097 13.7978C5.39038 13.743 5.37819 13.7216 5.33077 13.711L5.2375 13.6932L5.20135 13.8541Z" fill="white"/>
<path fill-rule="evenodd" clip-rule="evenodd" d="M6.00848 13.713L6.13626 13.7269L6.08121 14.1455C6.05447 14.2782 5.99971 14.3362 5.84383 14.3181C5.68524 14.2993 5.64759 14.2317 5.65714 14.0979L5.71262 13.6797L5.8414 13.6934L5.78614 14.1023C5.78022 14.1467 5.76931 14.2125 5.8536 14.2205C5.9284 14.2259 5.94537 14.1794 5.95385 14.1217" fill="white"/>
<path fill-rule="evenodd" clip-rule="evenodd" d="M6.27734 14.3397L6.31585 13.7412L6.56129 13.7512C6.67738 13.7566 6.70768 13.8453 6.70412 13.9299C6.7007 13.9814 6.68358 14.0389 6.63566 14.0701C6.59637 14.0966 6.54582 14.1029 6.49904 14.1008L6.41903 14.0966L6.40306 14.3475L6.27734 14.3397ZM6.42258 14.0051L6.48762 14.0085C6.54046 14.0103 6.57547 13.9908 6.58003 13.9181C6.58267 13.8484 6.55443 13.8365 6.48598 13.8337L6.43449 13.832L6.42258 14.0051Z" fill="white"/>
<path fill-rule="evenodd" clip-rule="evenodd" d="M23.5927 8.73523L22.617 10.3941C22.2487 10.1139 21.799 9.90779 21.2252 9.90779C19.8673 9.90779 19.3156 10.8557 19.3156 11.5235C19.3156 12.0193 19.6622 12.7506 20.8704 12.7506C21.3776 12.7506 22.0985 12.4202 22.3061 12.2698L21.341 14.1943C20.881 14.2802 20.7299 14.3335 20.3405 14.3448C18.1779 14.4053 17.3041 13.161 17.3047 11.8897C17.3062 10.2089 18.9016 8.16481 21.5466 8.16481C21.7086 8.16481 21.9069 8.21737 22.0764 8.27555L22.2477 8.07031" fill="white"/>
<path fill-rule="evenodd" clip-rule="evenodd" d="M27.6188 8.12305L27.8951 14.1519H25.8387L25.8376 13.1179H24.4353L23.9739 14.1519H21.7437L24.0753 9.84679L23.5495 9.84358L24.5484 8.12305H27.6188ZM25.8243 9.96756L25.0316 11.7212H25.8482L25.8243 9.96756Z" fill="white"/>
<path fill-rule="evenodd" clip-rule="evenodd" d="M16.0064 8.12249C17.0248 8.12783 17.6002 8.64556 17.6002 9.39336C17.6002 10.0829 16.9933 10.6931 16.3271 11.0086C17.013 11.2449 17.0723 11.8246 17.0723 12.2346C17.0723 13.2255 16.0108 14.1513 14.631 14.1513H11.6216L12.7954 9.9062L12.3133 9.9036L13.2989 8.12249C13.2989 8.12249 15.1783 8.11715 16.0064 8.12249ZM15.0076 10.5673C15.2183 10.5673 15.5902 10.5173 15.6832 10.1355C15.7851 9.72098 15.436 9.70983 15.2686 9.70983L14.6703 9.70743L14.4617 10.5673H15.0076ZM14.1616 11.6327L13.8861 12.6235H14.5907C14.8678 12.6235 15.2455 12.4946 15.338 12.1722C15.4294 11.8489 15.1654 11.6327 14.8893 11.6327H14.1616Z" fill="white"/>
<path fill-rule="evenodd" clip-rule="evenodd" d="M6.61194 14.8924C5.56992 14.8924 4.49917 14.6521 3.42977 14.1767L3.40353 14.1646L3.39098 14.1396C2.91108 13.1908 2.65723 12.1532 2.65723 11.1379C2.65723 10.1241 2.90067 9.13078 3.38086 8.18329L3.39412 8.15811L3.42086 8.14555C4.41011 7.70664 5.47423 7.48438 6.58484 7.48438C7.6193 7.48438 8.72421 7.73182 9.77942 8.20132L9.80645 8.21261L9.819 8.23825C10.308 9.20451 10.5659 10.242 10.5659 11.2405C10.5659 12.235 10.3183 13.2292 9.82862 14.1949L9.81579 14.2202L9.78855 14.2319C8.81434 14.6638 7.71585 14.8924 6.61194 14.8924ZM3.52868 14.0465C4.56748 14.5043 5.60365 14.7354 6.61187 14.7354C7.68091 14.7354 8.74404 14.5165 9.6905 14.1016C10.1606 13.1659 10.3989 12.2028 10.3989 11.2404C10.3989 10.2739 10.1502 9.26874 9.67973 8.33087C8.65569 7.88 7.58622 7.6409 6.58477 7.6409C5.5096 7.6409 4.47899 7.85449 3.51969 8.2759C3.05919 9.19421 2.8248 10.1565 2.8248 11.1378C2.8248 12.1208 3.06832 13.1265 3.52868 14.0465Z" fill="white"/>
</svg>
