<svg width="33" height="24" viewBox="0 0 33 24" fill="none" xmlns="http://www.w3.org/2000/svg">
<rect x="1" y="1" width="31" height="22" rx="3" fill="white" stroke="#BFCEE0"/>
<path fill-rule="evenodd" clip-rule="evenodd" d="M6.02742 14.0644L7.07947 15.3588H4.47478L6.02742 14.0644ZM5.69661 13.6645L3.65909 15.3627L3.65825 11.1862L5.69661 13.6645ZM10.599 9.45899C10.599 9.45899 10.1518 9.24862 9.63212 9.27934C9.03805 9.3141 8.54105 9.54046 8.25534 9.83914C8.07555 10.0268 7.8768 10.2557 7.77697 10.5043C7.63219 10.8639 7.60128 11.3391 7.60128 11.3391C7.60128 11.3391 7.39351 11.1639 7.13319 10.6534C6.83052 10.0596 6.74772 9.69985 6.7067 9.28947C6.6702 8.92934 6.72751 8.57324 6.72751 8.57324H10.599V9.45899ZM10.599 10.643V13.2765C10.599 13.2765 10.3584 13.3683 10.162 13.3683C9.96571 13.3683 9.63137 13.3394 9.24306 13.1273C8.8576 12.9169 8.64423 12.6624 8.47881 12.4317C8.31106 12.1971 8.17255 11.8719 8.13136 11.6376C8.09828 11.4501 8.0626 10.9825 8.25534 10.6024C8.35993 10.3961 8.64064 10.0426 9.18107 10.0225C9.6216 10.0057 9.86587 10.1208 10.0898 10.2429C10.5158 10.4756 10.599 10.643 10.599 10.643ZM6.38339 13.0915L7.08173 12.5132C6.85917 12.2308 6.80036 12.1243 6.55157 11.7597C6.29684 11.3864 6.08348 10.9758 5.90102 10.494C5.70352 9.97209 5.65582 9.67909 5.67762 9.28947C5.70494 8.79375 5.81839 8.57324 5.81839 8.57324H3.65723L3.65823 9.73049C3.65823 9.73049 5.31254 11.7903 6.38339 13.0915ZM8.37873 15.3569H10.599V13.7484C10.599 13.7484 10.0483 13.9994 9.69035 14.0196C9.47723 14.032 9.27038 14.0401 8.93663 13.9519C8.56561 13.854 8.35484 13.7585 8.01097 13.4767C7.73478 13.2507 7.41899 12.9169 7.41899 12.9169L6.71656 13.4988C7.04246 13.8948 7.28315 14.1831 7.35683 14.2607C7.67363 14.5934 7.80788 14.7156 8.02125 14.8341C8.23453 14.9529 8.94715 14.9465 8.94715 14.9465L8.37873 15.3569Z" fill="#E94E0F"/>
<path fill-rule="evenodd" clip-rule="evenodd" d="M27.3911 13.9257C27.3911 14.3918 27.4543 15.1578 26.929 15.3443V15.3754H28.9242V15.3443C28.3992 15.1476 28.4622 14.3918 28.4622 13.9257V10.0223C28.4622 9.55649 28.3992 8.79026 28.9242 8.59355V8.5625H26.929V8.59355C27.4646 8.79026 27.3911 9.54611 27.3911 10.0223V13.9257ZM20.0751 10.0223L23.6771 14.5264C24.139 15.1164 24.4647 15.4582 25.2103 15.7066V9.89809C25.2103 9.31835 25.2103 8.9041 25.7565 8.59355V8.5625H23.9081V8.59355C24.4647 8.9041 24.454 9.31835 24.454 9.89809V13.8222L20.6108 9.0387L20.4636 8.83161C20.3903 8.74883 20.3483 8.6971 20.3063 8.57288V8.5625H18.7729V8.59355C19.319 8.9041 19.319 9.31835 19.319 9.89809V14.0295C19.319 14.6091 19.319 15.0232 18.7626 15.3443V15.3754H20.6213V15.3443C20.0647 15.0232 20.0751 14.6091 20.0751 14.0295V10.0223ZM14.2038 11.3063V9.277L14.9073 9.20435C15.5374 9.14224 16.2094 9.51506 16.2094 10.2296C16.2094 11.0786 15.2327 11.3063 14.5504 11.3063H14.2038ZM14.2038 14.547V11.9895L14.9388 11.9482C15.8629 11.8964 16.85 12.3314 16.85 13.3357C16.85 14.3193 15.9786 14.7127 15.1173 14.6299L14.2038 14.547ZM13.1326 13.9154C13.1326 14.3918 13.1956 15.1476 12.6704 15.3443V15.3754H14.4032C15.1907 15.3754 16.0206 15.4065 16.7555 15.0544C17.4591 14.7231 18.0157 14.0396 18.0157 13.2423C18.0157 12.2278 17.249 11.6065 16.3039 11.4096C16.9025 11.1509 17.3539 10.7575 17.3539 10.0637C17.3539 9.14224 16.5455 8.5625 15.1595 8.5625H12.6704V8.59355C13.2063 8.79026 13.1326 9.54611 13.1326 10.0119V13.9154Z" fill="#005B6A"/>
</svg>
