<svg width="31" height="22" viewBox="0 0 31 22" fill="none" xmlns="http://www.w3.org/2000/svg">
<rect width="31" height="22" rx="3" fill="#003D79"/>
<path fill-rule="evenodd" clip-rule="evenodd" d="M2.24233 11.6514C2.24233 11.2568 2.23533 10.9257 2.21436 10.6305H2.94213L2.97626 11.1377H2.99667C3.16163 10.8697 3.46328 10.5527 4.02597 10.5527C4.46517 10.5527 4.80822 10.8068 4.95205 11.187H4.96618C5.08302 10.9969 5.21979 10.8561 5.37747 10.7572C5.56291 10.6236 5.7757 10.5527 6.05015 10.5527C6.60577 10.5527 7.16804 10.94 7.16804 12.0386V14.0593H6.34481V12.1656C6.34481 11.5953 6.15301 11.2568 5.74843 11.2568C5.45978 11.2568 5.24685 11.4685 5.15826 11.715C5.13742 11.7993 5.11686 11.905 5.11686 12.0029V14.0593H4.29336V12.0737C4.29336 11.5953 4.10841 11.2568 3.71725 11.2568C3.40161 11.2568 3.18918 11.5107 3.11352 11.7496C3.07898 11.8347 3.06513 11.933 3.06513 12.0314V14.0593H2.24233V11.6514Z" fill="white"/>
<path fill-rule="evenodd" clip-rule="evenodd" d="M10.3757 13.2366C10.3757 13.5462 10.3894 13.8485 10.4237 14.0603H9.66189L9.6072 13.6802H9.58637C9.38065 13.948 9.03074 14.1378 8.59854 14.1378C7.926 14.1378 7.54883 13.6383 7.54883 13.1169C7.54883 12.2506 8.29639 11.8144 9.53148 11.8214V11.7648C9.53148 11.5394 9.44218 11.1665 8.85223 11.1665C8.52274 11.1665 8.17955 11.2722 7.95327 11.4198L7.78839 10.857C8.03585 10.7018 8.46848 10.5537 8.99634 10.5537C10.0671 10.5537 10.3757 11.2512 10.3757 11.9972V13.2366ZM9.55217 12.3848C8.95536 12.3706 8.38603 12.5044 8.38603 13.0255C8.38603 13.3631 8.59867 13.5183 8.86635 13.5183C9.20213 13.5183 9.44952 13.2929 9.52476 13.0466C9.54518 12.9832 9.55217 12.9125 9.55217 12.8564V12.3848Z" fill="white"/>
<path fill-rule="evenodd" clip-rule="evenodd" d="M10.9587 11.6514C10.9587 11.2568 10.9512 10.9257 10.9312 10.6305H11.6715L11.7129 11.1445H11.7332C11.8774 10.8772 12.2411 10.5527 12.7967 10.5527C13.3801 10.5527 13.9838 10.94 13.9838 12.0245V14.0593H13.14V12.1234C13.14 11.6301 12.9616 11.2568 12.5019 11.2568C12.1657 11.2568 11.9325 11.5033 11.843 11.764C11.8161 11.8416 11.8089 11.9475 11.8089 12.0454V14.0593H10.9587V11.6514Z" fill="white"/>
<path fill-rule="evenodd" clip-rule="evenodd" d="M17.643 9.25293V13.0946C17.643 13.4466 17.6565 13.8275 17.6703 14.0596H16.9155L16.8817 13.5175H16.8677C16.6686 13.8979 16.2632 14.1371 15.7766 14.1371C14.9811 14.1371 14.3497 13.4402 14.3497 12.384C14.3427 11.2362 15.0425 10.553 15.8451 10.553C16.3047 10.553 16.6343 10.7504 16.785 11.0041H16.7989V9.25293H17.643ZM16.7988 12.0597C16.7988 11.99 16.7917 11.9051 16.7785 11.8349C16.7029 11.4969 16.4352 11.2221 16.0509 11.2221C15.5089 11.2221 15.207 11.7153 15.207 12.356C15.207 12.9825 15.5089 13.4403 16.0441 13.4403C16.387 13.4403 16.6891 13.2009 16.7713 12.8279C16.7917 12.7501 16.7988 12.6657 16.7988 12.5738V12.0597Z" fill="white"/>
<path fill-rule="evenodd" clip-rule="evenodd" d="M18.2393 14.0594H19.0909V10.6309H18.2393V14.0594Z" fill="white"/>
<path fill-rule="evenodd" clip-rule="evenodd" d="M19.6868 11.7358C19.6868 11.2713 19.6797 10.9399 19.6592 10.6304H20.3935L20.4203 11.285H20.4488C20.6132 10.7992 21.0043 10.6304 21.3609 10.6304C21.4431 10.6304 21.4911 10.616 21.5599 10.6304V11.3911C21.4911 11.377 21.4158 11.363 21.3128 11.363C20.9081 11.363 20.6334 11.6303 20.5581 12.0173C20.5447 12.0948 20.5309 12.1867 20.5309 12.2857V14.0594H19.6868V11.7358Z" fill="white"/>
<path fill-rule="evenodd" clip-rule="evenodd" d="M21.9512 14.0594H22.8015V10.6309H21.9512V14.0594Z" fill="white"/>
<path fill-rule="evenodd" clip-rule="evenodd" d="M21.75 6.4858C21.2392 6.78934 20.0344 7.49848 19.5846 7.76256C19.3105 7.90587 18.6757 7.96844 18.3166 7.47157C18.3102 7.4626 17.839 6.85845 17.8198 6.8357C17.8063 6.81963 17.5017 6.35598 16.823 6.34149C16.7227 6.33905 16.2242 6.33632 15.7377 6.62006C15.0911 6.99917 13.5873 7.88147 13.5873 7.88147C13.5869 7.88147 13.5869 7.88226 13.5861 7.88226C12.968 8.24522 12.4863 8.52782 12.4863 8.52782L13.0554 9.24506C13.3216 9.58428 13.9219 9.8467 14.4425 9.54C14.4425 9.54 16.366 8.39685 16.3731 8.39355C17.205 7.92531 17.8469 7.92531 18.273 8.09955C18.6554 8.26539 18.9881 8.67859 18.9881 8.67859C18.9881 8.67859 19.4229 9.23157 19.4996 9.32831C19.747 9.64082 20.1565 9.51804 20.1565 9.51804C20.1565 9.51804 20.3082 9.50039 20.5369 9.36103C20.5369 9.36103 22.4001 8.25233 22.4013 8.25197C22.9929 7.89575 23.5356 7.82923 23.8129 7.85542C24.6815 7.93644 24.9513 8.55918 25.3279 8.99361C25.5498 9.24915 25.7499 9.39425 26.0559 9.38693C26.257 9.38256 26.4842 9.25741 26.5177 9.2348L28.7489 7.9134C28.7489 7.9134 28.5199 7.55955 28.0511 7.009C27.6315 6.5178 27.1858 6.74004 26.8304 6.92067C26.6811 6.99644 26.1402 7.36572 25.6043 7.62335C25.2224 7.80684 24.6739 7.75165 24.3733 7.37046C24.3554 7.34728 23.869 6.74306 23.8179 6.66871C23.6216 6.4164 23.2387 6.19043 22.7479 6.19043C22.4494 6.19043 22.1108 6.27396 21.75 6.4858Z" fill="url(#paint0_linear_1340_22892)"/>
<defs>
<linearGradient id="paint0_linear_1340_22892" x1="12.4863" y1="9.67582" x2="28.7489" y2="9.67582" gradientUnits="userSpaceOnUse">
<stop stop-color="#FFCA06"/>
<stop offset="0.330844" stop-color="#FBAA18"/>
<stop offset="0.694742" stop-color="#FFC907"/>
<stop offset="1" stop-color="#FAA619"/>
</linearGradient>
</defs>
</svg>
