<svg width="33" height="24" viewBox="0 0 33 24" fill="none" xmlns="http://www.w3.org/2000/svg">
<rect x="1" y="1" width="31" height="22" rx="3" stroke="#BFCEE0"/>
<path fill-rule="evenodd" clip-rule="evenodd" d="M12.8295 8.88082L12.8203 9.06313L16.2632 13.1638L16.3869 13.184L16.4025 13.176L16.4629 13.0628L14.9946 8.07287L14.7454 7.90234L12.8295 8.88082Z" fill="#0096B8"/>
<path fill-rule="evenodd" clip-rule="evenodd" d="M16.2632 13.1632L16.3867 13.1833L13.8478 9.26156L12.8203 9.0625L16.2632 13.1632Z" fill="#005675"/>
<path fill-rule="evenodd" clip-rule="evenodd" d="M14.7449 7.90234L13.8672 8.95143L14.2256 9.11052L14.9941 8.07305V8.07287L14.7449 7.90234Z" fill="#0BBBEF"/>
<path fill-rule="evenodd" clip-rule="evenodd" d="M14.2266 9.10957L16.4033 13.1751L16.4637 13.0615L14.9956 8.07227L14.2266 9.10957Z" fill="#007290"/>
<path fill-rule="evenodd" clip-rule="evenodd" d="M18.16 7.91235L16.6875 14.6604L16.7394 14.787L16.7641 14.7983L16.9308 14.7539L20.5844 9.1351L20.5803 8.84195L18.3539 7.80273L18.16 7.91235Z" fill="#81B73E"/>
<path fill-rule="evenodd" clip-rule="evenodd" d="M19.1025 9.26314L16.7656 14.7979L16.932 14.7536L20.5856 9.13477L19.1025 9.26314Z" fill="#69931D"/>
<path fill-rule="evenodd" clip-rule="evenodd" d="M16.6875 14.6606L16.7396 14.7872L18.6811 9.0291L18.16 7.91309L16.6875 14.6606Z" fill="#277933"/>
<path fill-rule="evenodd" clip-rule="evenodd" d="M20.5786 8.8418L19.0156 8.86231L19.0999 9.26323L20.5828 9.13476L20.5788 8.8418H20.5786Z" fill="#AECC53"/>
<path fill-rule="evenodd" clip-rule="evenodd" d="M18.1641 7.91208L18.6846 9.02793L19.0212 8.86246L18.358 7.80273L18.1641 7.91208Z" fill="#69931D"/>
<path fill-rule="evenodd" clip-rule="evenodd" d="M17.8921 6L15.042 6.03116L14.9531 6.20439L16.5279 10.8126L16.6214 10.8765L16.6242 10.877L16.7109 10.8261L18.0763 6.19392L17.8921 6Z" fill="#E4032E"/>
<path fill-rule="evenodd" clip-rule="evenodd" d="M14.9531 6.20428L16.5279 10.8125L16.6209 10.8765L16.0575 6.7622L14.9531 6.2041V6.20428Z" fill="#791B15"/>
<path fill-rule="evenodd" clip-rule="evenodd" d="M16.5938 6.76245L16.6245 10.8763L16.7113 10.8251L18.0765 6.19336L16.5938 6.76245Z" fill="#B51227"/>
<path fill-rule="evenodd" clip-rule="evenodd" d="M20.1326 18.4347C20.1348 18.3864 20.1375 18.3093 20.1398 18.204V16.1774L20.1337 15.9808C20.1322 15.9391 20.1304 15.9107 20.1284 15.8955C20.1264 15.8797 20.1233 15.8662 20.119 15.854C20.1048 15.804 20.0736 15.7687 20.0267 15.7473C19.9833 15.7277 19.9191 15.7182 19.8359 15.7176V15.6488L20.911 15.6484C21.0674 15.6491 21.2085 15.6599 21.3345 15.6819C21.4605 15.7034 21.562 15.7333 21.6397 15.7715C21.8643 15.8864 21.9754 16.0796 21.9741 16.354C21.9769 16.747 21.7369 16.9975 21.2401 17.0622L21.1568 17.0767C21.2685 17.0812 21.4195 17.1209 21.4899 17.1386C21.5596 17.156 21.628 17.1834 21.6951 17.221C21.9587 17.3636 22.0885 17.5914 22.0859 17.907C22.0872 18.2898 21.9138 18.5385 21.5618 18.6562C21.4851 18.6799 21.3885 18.6984 21.272 18.7121C21.155 18.7257 21.0282 18.7325 20.8911 18.7328H19.8359V18.6638C19.9603 18.6621 20.0457 18.6417 20.0836 18.5937C20.0992 18.5776 20.1105 18.5596 20.1179 18.5391C20.1255 18.5183 20.1301 18.4826 20.1326 18.4347ZM20.4609 15.7432V17.0292H20.8805C21.3683 17.026 21.621 16.808 21.6236 16.3712C21.6271 15.947 21.361 15.7401 20.8446 15.7432H20.4609ZM21.7078 17.8725C21.7048 17.573 21.6043 17.361 21.4035 17.2423C21.3425 17.2091 21.2651 17.1833 21.172 17.1649C21.0792 17.1467 20.9766 17.1375 20.8645 17.1372H20.4609V18.6384H20.8645C21.1569 18.6397 21.3706 18.5809 21.5023 18.4579C21.5688 18.3985 21.6195 18.3186 21.6547 18.218C21.6897 18.1174 21.7072 18.0019 21.7078 17.8725Z" fill="black"/>
<path fill-rule="evenodd" clip-rule="evenodd" d="M23.6315 18.646C23.6097 18.5996 23.5943 18.5443 23.5878 18.4029L23.5858 18.3613L23.56 18.3929C23.5292 18.4298 23.499 18.4626 23.4697 18.4901C23.4399 18.5178 23.4054 18.5462 23.3668 18.5749C23.282 18.6422 23.2002 18.6895 23.1219 18.717C23.0434 18.7444 22.9551 18.7577 22.8567 18.7567C22.6852 18.7577 22.5535 18.7138 22.4594 18.6277C22.407 18.5768 22.3655 18.5128 22.3351 18.4351C22.3052 18.3575 22.2897 18.2743 22.2891 18.1846C22.2909 17.8545 22.4791 17.6418 22.8642 17.5474C22.966 17.5219 23.0736 17.501 23.1868 17.4849C23.3002 17.4685 23.4291 17.455 23.5729 17.4446L23.5878 17.1568C23.5878 17.0583 23.5836 16.9784 23.5746 16.9178C23.5657 16.8564 23.5509 16.8028 23.53 16.7576C23.473 16.6377 23.3565 16.5803 23.1882 16.5803C22.9182 16.5786 22.7719 16.7172 22.7567 16.992C22.7553 17.0359 22.7515 17.0669 22.746 17.0851C22.7409 17.1028 22.7321 17.1157 22.7198 17.1252C22.6928 17.1448 22.65 17.1559 22.5887 17.1568C22.4562 17.1587 22.4067 17.1164 22.4089 17.0451C22.4097 16.9706 22.4328 16.8984 22.4788 16.8289C22.5251 16.7591 22.5895 16.6983 22.6726 16.6468C22.8221 16.5576 23.0135 16.5121 23.2482 16.5111C23.5052 16.5121 23.6774 16.5745 23.7715 16.6945C23.8097 16.7447 23.8379 16.8071 23.8561 16.8826C23.8745 16.9577 23.8838 17.0533 23.8837 17.1694L23.8833 17.1937L23.8813 17.3064L23.8757 17.6037L23.8716 18.0123L23.8676 18.2101C23.8681 18.3033 23.8716 18.3742 23.8778 18.4537C23.8835 18.5311 23.9093 18.6175 23.9668 18.6403C24.0267 18.6642 24.0844 18.6737 24.1943 18.6744C24.275 18.6728 24.3371 18.6627 24.3792 18.6435C24.4272 18.6217 24.4568 18.5749 24.4696 18.5087C24.482 18.4443 24.4872 18.3458 24.4861 18.2143V17.0608C24.4887 16.9037 24.4718 16.7933 24.4303 16.7355C24.3896 16.6794 24.314 16.655 24.2102 16.6563V16.5947L24.7819 16.5502V17.0403L24.8117 16.9829C24.8962 16.821 24.9922 16.7061 25.0992 16.6374C25.206 16.5685 25.3398 16.5341 25.501 16.5361C25.7436 16.5323 25.9123 16.6197 26.0111 16.7945C26.0474 16.8532 26.0737 16.9236 26.0894 17.0063C26.1051 17.0889 26.1132 17.1944 26.1125 17.3231V18.2143C26.1111 18.3471 26.1162 18.4462 26.1281 18.5106C26.1405 18.5768 26.1694 18.6232 26.2177 18.6444C26.2576 18.6624 26.3505 18.6719 26.4296 18.674C26.5039 18.6719 26.5612 18.6617 26.6006 18.6435C26.6473 18.6213 26.6757 18.5746 26.6877 18.5087C26.6994 18.4441 26.7045 18.3458 26.7029 18.2143V16.1189C26.7045 15.9987 26.6998 15.9097 26.6886 15.8523C26.6769 15.7922 26.6482 15.7512 26.6013 15.7332C26.5605 15.7178 26.4994 15.7105 26.4192 15.7102V15.649L27.0138 15.6162C27.0063 15.7585 27.0007 15.9036 26.9967 16.0523C26.9929 16.2072 26.9909 16.3426 26.9909 16.4584V17.8661L27.6458 17.0937C27.7385 16.9832 27.7892 16.8904 27.79 16.816C27.7946 16.7125 27.6977 16.6658 27.5382 16.6572V16.596H28.3894V16.6581C28.3383 16.6645 28.2939 16.6746 28.2559 16.6885C28.2148 16.7036 28.1726 16.7254 28.1295 16.7535C28.0859 16.7818 28.0491 16.8081 28.0195 16.8318C27.9893 16.856 27.9536 16.8907 27.9128 16.9355C27.8719 16.9804 27.8123 17.0483 27.7343 17.1395L27.5183 17.39L28.0841 18.3484C28.1487 18.462 28.2081 18.5421 28.2627 18.5875C28.3148 18.6312 28.3814 18.6592 28.4614 18.6725V18.735H27.9438C27.9296 18.7041 27.91 18.6636 27.885 18.6141L27.8027 18.4522L27.7396 18.3303L27.3209 17.5957L26.9918 17.9924L26.9909 18.2143C26.9894 18.3458 26.9944 18.4443 27.0063 18.5087C27.0184 18.5749 27.0472 18.6213 27.0947 18.6435C27.1363 18.6627 27.198 18.6728 27.2784 18.6744V18.735H25.529V18.6744C25.6475 18.6709 25.729 18.6501 25.7615 18.6033C25.7746 18.5854 25.7845 18.5649 25.7916 18.5418C25.7984 18.5188 25.8027 18.4888 25.8047 18.4522C25.807 18.4234 25.8094 18.3818 25.8121 18.3272C25.815 18.2723 25.8165 18.2347 25.8167 18.2146V17.3489C25.8175 17.1356 25.7962 16.9776 25.7514 16.8772C25.683 16.7191 25.5599 16.6399 25.3853 16.6392C25.1905 16.6386 25.0353 16.7383 24.9202 16.9355C24.8769 17.0101 24.8432 17.095 24.8188 17.1896C24.7948 17.2842 24.7821 17.3777 24.7819 17.4692V18.2143C24.7804 18.3471 24.7855 18.4462 24.7974 18.5106C24.8097 18.5768 24.8387 18.6232 24.887 18.6444C24.9292 18.6633 24.9918 18.6728 25.0736 18.6744V18.735H24.2131C24.1369 18.7378 23.9914 18.7419 23.9194 18.7409C23.8438 18.7397 23.8074 18.7311 23.7385 18.7255C23.6774 18.7062 23.6517 18.6892 23.6315 18.646ZM22.6172 18.1718C22.6186 18.3122 22.6503 18.4261 22.7136 18.512C22.7771 18.5984 22.8628 18.6429 22.9687 18.6448C23.0757 18.6433 23.177 18.6132 23.2714 18.5552C23.3657 18.4969 23.4402 18.4189 23.494 18.3223C23.5269 18.2607 23.5508 18.1816 23.5658 18.0853C23.5807 17.99 23.5881 17.8711 23.5881 17.7287V17.5078C23.3964 17.5258 23.2593 17.5454 23.1598 17.5681C23.0594 17.5908 22.9709 17.6234 22.8936 17.6662C22.7106 17.7641 22.6186 17.9339 22.6172 18.1718Z" fill="black"/>
<path fill-rule="evenodd" clip-rule="evenodd" d="M5.7793 17.4356V18.2028C5.77781 18.3258 5.7844 18.4173 5.79893 18.477C5.81368 18.5366 5.8453 18.576 5.89429 18.5953C5.94307 18.6145 6.01829 18.6256 6.11946 18.6275V18.7348H5V18.6275C5.09529 18.6256 5.16583 18.6145 5.21184 18.5953C5.25757 18.576 5.28713 18.5366 5.30067 18.477C5.31407 18.4173 5.32024 18.3258 5.31882 18.2028V16.1856C5.3201 16.0625 5.31421 15.971 5.30124 15.9114C5.28819 15.8514 5.25962 15.8117 5.21595 15.7918C5.17214 15.7719 5.10486 15.7603 5.01411 15.7567V15.6494H6.08039C6.43984 15.6478 6.70322 15.7161 6.87039 15.8542C7.03764 15.9925 7.12031 16.2099 7.11832 16.5075C7.1196 16.9253 6.96837 17.1989 6.66487 17.3283C6.58574 17.3614 6.48479 17.3876 6.36221 17.4065C6.23934 17.4254 6.10294 17.4353 5.95285 17.4356H5.7793ZM5.77344 17.316H5.95777C6.17918 17.315 6.34203 17.2589 6.4466 17.1468C6.50339 17.0821 6.54642 16.9969 6.57592 16.8919C6.60513 16.7871 6.62001 16.6672 6.62016 16.5321C6.61902 16.0241 6.41222 15.7697 6.00031 15.769H5.77344V17.316Z" fill="black"/>
<path fill-rule="evenodd" clip-rule="evenodd" d="M8.91864 17.5649H7.61627C7.61755 17.7145 7.6257 17.8401 7.64059 17.9414C7.65541 18.0424 7.6793 18.1349 7.71205 18.2187C7.82024 18.4902 7.98734 18.6259 8.2135 18.6259C8.34154 18.6249 8.4576 18.5845 8.56189 18.5041C8.66597 18.4236 8.75267 18.3078 8.82166 18.1573L8.91389 18.2229C8.82322 18.4173 8.7124 18.5599 8.5816 18.6511C8.4508 18.742 8.29128 18.7872 8.10276 18.7862C7.80635 18.7821 7.53361 18.6801 7.36289 18.4804C7.19203 18.2806 7.10497 18.0067 7.10156 17.6596C7.10497 17.3096 7.18919 17.0329 7.35417 16.829C7.519 16.6252 7.78224 16.521 8.06597 16.5166C8.25462 16.517 8.43683 16.5633 8.56614 16.6555C8.69546 16.7473 8.79082 16.8821 8.85228 17.0594C8.87235 17.1181 8.88766 17.1853 8.89794 17.2614C8.90829 17.3371 8.91524 17.4384 8.91864 17.5649ZM7.61719 17.4459H8.43193C8.4286 17.319 8.42236 17.2168 8.413 17.1395C8.40386 17.0618 8.38911 16.9927 8.36933 16.9318C8.30042 16.716 8.19478 16.609 8.05228 16.6109C7.89241 16.6125 7.77323 16.733 7.69461 16.9728C7.67447 17.035 7.65845 17.1032 7.64611 17.177C7.63392 17.2509 7.62421 17.3405 7.61719 17.4459Z" fill="black"/>
<path fill-rule="evenodd" clip-rule="evenodd" d="M9.0075 16.5755L9.72994 16.5218C9.73384 16.5995 9.73667 16.6645 9.73866 16.7172C9.74064 16.7702 9.74156 16.8166 9.74156 16.857V16.981C9.89853 16.6721 10.0881 16.5162 10.3103 16.5137C10.4063 16.5156 10.4843 16.5458 10.5442 16.6039C10.6042 16.6623 10.6351 16.737 10.6368 16.828C10.6355 16.9037 10.6096 16.9643 10.5591 17.01C10.5087 17.0554 10.4423 17.0792 10.3603 17.0801C10.2616 17.0835 10.2014 17.0397 10.1796 16.9479C10.1654 16.891 10.1507 16.8526 10.1354 16.8321C10.1202 16.8115 10.0979 16.8021 10.0681 16.8031H10.0605C9.98488 16.8099 9.91321 16.8746 9.84522 16.9977C9.81459 17.0589 9.79155 17.1265 9.77616 17.2006C9.76078 17.2748 9.75312 17.3603 9.75312 17.4569V18.2221C9.75156 18.3443 9.75716 18.4342 9.76964 18.4923C9.78205 18.55 9.81041 18.5878 9.85436 18.6059C9.89853 18.6235 9.96709 18.6336 10.0605 18.6358V18.735H8.99219V18.6358C9.07925 18.6361 9.14384 18.6271 9.18566 18.6084C9.22778 18.5898 9.25486 18.551 9.26734 18.4923C9.27996 18.4329 9.28549 18.343 9.28435 18.2221V17.076C9.28776 16.9055 9.27202 16.7948 9.23671 16.7437C9.2014 16.6926 9.12505 16.6695 9.0075 16.6749V16.5755Z" fill="black"/>
<path fill-rule="evenodd" clip-rule="evenodd" d="M11.4915 16.5219L11.4954 16.9314C11.651 16.6557 11.8739 16.5165 12.1641 16.5137C12.4591 16.5118 12.6411 16.6563 12.7097 16.9482C12.7931 16.7977 12.8885 16.6875 12.9955 16.6178C13.1025 16.5474 13.2275 16.5127 13.3706 16.5137C13.5968 16.5149 13.7633 16.5951 13.8703 16.7535C13.912 16.8138 13.9419 16.8869 13.9595 16.9738C13.9774 17.0608 13.986 17.1735 13.9856 17.3121V18.2222C13.9842 18.343 13.9899 18.4329 14.0024 18.4919C14.0148 18.551 14.0421 18.5898 14.084 18.6085C14.1261 18.6271 14.1906 18.6362 14.2776 18.6355V18.735H13.2361V18.6355C13.3194 18.6362 13.3812 18.6271 13.4216 18.6085C13.462 18.5898 13.4883 18.551 13.5002 18.4919C13.5125 18.4329 13.5179 18.343 13.5168 18.2222V17.3161C13.5177 17.0988 13.4927 16.9419 13.4423 16.8457C13.3918 16.7491 13.3103 16.702 13.1977 16.7039C13.0625 16.7011 12.9485 16.7769 12.8557 16.9314C12.7758 17.0603 12.7359 17.1998 12.7365 17.3493V18.2222C12.7354 18.343 12.7408 18.4329 12.753 18.4919C12.7654 18.551 12.7919 18.5898 12.8328 18.6085C12.8738 18.6271 12.9364 18.6362 13.021 18.6355V18.735H11.991V18.6355C12.0743 18.6362 12.1361 18.6271 12.1766 18.6085C12.2169 18.5898 12.2431 18.551 12.2551 18.4919C12.2673 18.4329 12.2729 18.343 12.2715 18.2222V17.3121C12.2735 16.9024 12.1697 16.6998 11.9602 16.7039C11.8299 16.709 11.7206 16.7756 11.6327 16.9034C11.5446 17.0316 11.4988 17.1912 11.4954 17.3824V18.2222C11.4942 18.3443 11.4996 18.4351 11.5118 18.4939C11.5239 18.5528 11.55 18.5914 11.5904 18.6094C11.6308 18.6274 11.6925 18.6362 11.7759 18.6355V18.735H10.7344V18.6355C10.8216 18.6362 10.8859 18.6274 10.928 18.6094C10.9699 18.5914 10.9972 18.5528 11.0097 18.4939C11.0222 18.4351 11.0278 18.3443 11.0264 18.2222V17.0722C11.0305 16.9037 11.0148 16.7948 10.9793 16.745C10.944 16.6949 10.865 16.6718 10.7422 16.6749V16.5755L11.4915 16.5219Z" fill="black"/>
<path fill-rule="evenodd" clip-rule="evenodd" d="M17.0082 16.7109V18.0925C17.0081 18.1824 17.0112 18.2569 17.0174 18.3158C17.0235 18.3748 17.0333 18.4244 17.0466 18.4647C17.0628 18.5109 17.0881 18.5478 17.1219 18.5756C17.156 18.603 17.1938 18.6172 17.2348 18.6178C17.317 18.6166 17.4066 18.5736 17.504 18.4898L17.5577 18.5929C17.4034 18.7324 17.228 18.8012 17.0313 18.7999C16.8192 18.7965 16.6746 18.7204 16.597 18.5724C16.5818 18.5396 16.5699 18.5024 16.5615 18.4601C16.5533 18.4181 16.5473 18.3616 16.5441 18.29C16.5408 18.2186 16.5392 18.1224 16.5393 18.0015V16.7109H16.3203V16.5869C16.4041 16.5833 16.4749 16.5644 16.5331 16.53C16.5914 16.4954 16.6421 16.4414 16.6855 16.3675C16.7195 16.3114 16.7475 16.2489 16.7694 16.1804C16.7915 16.1119 16.8108 16.0267 16.8276 15.9247L17.0198 15.9043C17.0173 15.9589 17.015 16.0144 17.0133 16.0709C17.0117 16.1271 17.0103 16.1949 17.0096 16.274C17.0086 16.3533 17.0082 16.4549 17.0082 16.5783H17.4733V16.7109H17.0082Z" fill="black"/>
<path fill-rule="evenodd" clip-rule="evenodd" d="M16.3215 18.6466V18.734C16.2091 18.7419 16.1637 18.7419 16.0455 18.7419C15.9517 18.7419 15.8546 18.7403 15.774 18.7078C15.7241 18.6876 15.6963 18.6703 15.6591 18.6283C15.6332 18.5838 15.6167 18.5812 15.6084 18.4579C15.5091 18.5734 15.4059 18.6579 15.2986 18.7126C15.1911 18.7668 15.0754 18.7937 14.9513 18.7931C14.7668 18.7909 14.6225 18.7362 14.5183 18.6286C14.4142 18.521 14.3614 18.373 14.3594 18.1849C14.3587 17.8299 14.5637 17.6093 14.9742 17.5231C15.1594 17.4843 15.3694 17.4582 15.6045 17.4443V17.1754C15.6064 16.9601 15.5852 16.8109 15.5412 16.7279C15.4968 16.6449 15.4181 16.6052 15.3048 16.609C15.1843 16.6061 15.0985 16.6531 15.0473 16.7494C15.0287 16.7829 15.015 16.8207 15.0064 16.864C14.9979 16.9069 14.991 16.9665 14.9858 17.0432C14.9828 17.117 14.9629 17.1694 14.9262 17.2004C14.8895 17.2316 14.8313 17.2467 14.7514 17.2461C14.5733 17.2446 14.4837 17.1811 14.4824 17.0558C14.4829 16.9826 14.504 16.9125 14.5454 16.8463C14.5867 16.7797 14.6452 16.7213 14.7207 16.6708C14.8807 16.5648 15.0908 16.5124 15.351 16.5137C15.6155 16.5124 15.805 16.5689 15.9197 16.6834C15.9714 16.7358 16.0093 16.8027 16.0335 16.8838C16.0578 16.9652 16.0698 17.0694 16.0695 17.1966L16.0656 17.5563L16.0618 17.9161C16.0587 18.0341 16.0573 18.1085 16.058 18.1394C16.0566 18.2888 16.061 18.3976 16.071 18.4661C16.0812 18.5349 16.0922 18.5652 16.1341 18.6024C16.2074 18.6476 16.2704 18.6463 16.3215 18.6466ZM15.6049 17.8579V17.5396C15.3298 17.5595 15.1346 17.6143 15.0193 17.7036C14.9042 17.7932 14.8482 17.9327 14.8517 18.1224C14.8528 18.2713 14.8812 18.3894 14.9368 18.4768C14.9922 18.5642 15.0677 18.6087 15.163 18.6106C15.2411 18.6099 15.3133 18.5857 15.3796 18.5377C15.4458 18.4901 15.4978 18.4231 15.5357 18.3377C15.5604 18.2853 15.5781 18.2215 15.5892 18.1457C15.5999 18.07 15.6052 17.9741 15.6049 17.8579Z" fill="black"/>
<path fill-rule="evenodd" clip-rule="evenodd" d="M19.6341 18.6473V18.7347C19.5216 18.7426 19.4763 18.7429 19.3581 18.7429C19.2642 18.7429 19.1673 18.7413 19.0865 18.7088C19.0366 18.6886 19.0089 18.6716 18.9718 18.629C18.9457 18.5848 18.9292 18.5822 18.9209 18.4589C18.8217 18.574 18.7185 18.6589 18.6111 18.7135C18.5036 18.7675 18.3879 18.7947 18.2638 18.794C18.0793 18.7918 17.9351 18.7369 17.8309 18.6296C17.7268 18.522 17.6739 18.374 17.6719 18.1859C17.6713 17.8309 17.8763 17.6103 18.2868 17.5242C18.4719 17.4853 18.6819 17.4591 18.917 17.4453V17.1764C18.9189 16.9612 18.8977 16.8119 18.8537 16.7286C18.8094 16.6456 18.7306 16.6062 18.6173 16.61C18.4969 16.6072 18.411 16.6542 18.3598 16.7503C18.3412 16.7838 18.3275 16.8217 18.319 16.865C18.3105 16.9078 18.3036 16.9674 18.2985 17.0441C18.2953 17.1177 18.2755 17.1701 18.2387 17.2014C18.2021 17.2326 18.1438 17.2477 18.0639 17.2471C17.8858 17.2455 17.7962 17.1821 17.7949 17.0568C17.7954 16.9835 17.8165 16.9135 17.8579 16.8473C17.8992 16.7807 17.9577 16.7222 18.0332 16.6721C18.1932 16.5658 18.4034 16.5134 18.6635 16.5147C18.928 16.5134 19.1176 16.5698 19.2322 16.6844C19.2839 16.7368 19.3219 16.8038 19.346 16.8848C19.3703 16.9662 19.3823 17.0704 19.382 17.1972L19.3781 17.5573L19.3744 17.917C19.3713 18.035 19.3698 18.1095 19.3705 18.1404C19.3691 18.2897 19.3735 18.3986 19.3835 18.4671C19.3937 18.5359 19.4047 18.5662 19.4466 18.6034C19.5199 18.6486 19.583 18.647 19.6341 18.6473ZM18.9174 17.8593V17.5405C18.6423 17.5608 18.4472 17.6156 18.3319 17.7049C18.2165 17.7946 18.1607 17.934 18.1642 18.1237C18.1654 18.2727 18.1938 18.3907 18.2493 18.4781C18.3047 18.5655 18.3802 18.61 18.4755 18.6118C18.5537 18.6112 18.6259 18.587 18.6922 18.539C18.7583 18.4913 18.8104 18.4244 18.8482 18.3389C18.873 18.2865 18.8907 18.2228 18.9016 18.147C18.9125 18.0713 18.9178 17.9754 18.9174 17.8593Z" fill="black"/>
</svg>
