<svg width="120" height="120" viewBox="0 0 120 120" fill="none" xmlns="http://www.w3.org/2000/svg">
<rect width="120" height="120" rx="60" fill="#DCEDFF"/>
<path d="M94.4364 35.5799L86.7479 41.1444V93.8628H14.4727V42.4571C14.4727 41.6731 14.912 40.9553 15.6101 40.5986L50.2921 22.8789C50.5861 22.7287 50.9115 22.6504 51.2416 22.6504L70.0183 22.6504C70.3652 22.6504 70.7066 22.7369 71.0117 22.902L94.4364 35.5799Z" fill="#435BBF"/>
<path d="M106.558 41.1444C106.555 41.1444 106.553 41.1438 106.551 41.1428L71.5174 23.1405C70.9187 22.8329 70.2084 22.8329 69.6097 23.1405L34.6209 41.1198C34.5894 41.1359 34.5546 41.1444 34.5192 41.1444C34.3964 41.1444 34.2969 41.2439 34.2969 41.3667V91.7758C34.2969 92.9284 35.2312 93.8628 36.3838 93.8628H104.485C105.638 93.8628 106.572 92.9284 106.572 91.7758V41.1589C106.572 41.1509 106.566 41.1444 106.558 41.1444Z" fill="#5472EF"/>
<rect x="43.8633" y="56.4492" width="53.1436" height="37.4131" rx="2.08696" fill="#32448F"/>
<path d="M91.0625 56.4492H94.9236C96.0762 56.4492 97.0105 57.3836 97.0105 58.5362V91.7756C97.0105 92.9281 96.0762 93.8625 94.9236 93.8625H91.0625V56.4492Z" fill="#768EF2"/>
<rect width="26.8828" height="22.741" rx="2.08696" transform="matrix(-1 0 0 1 69.7031 71.1191)" fill="#FFCB71"/>
<rect width="10.3936" height="22.741" rx="2.08696" transform="matrix(-1 0 0 1 53.2148 71.1191)" fill="#FFE0AA"/>
<path d="M63.6094 71.1191H58.4516V85.1306C58.4516 86.2832 59.386 87.2176 60.5386 87.2176H61.5224C62.675 87.2176 63.6094 86.2832 63.6094 85.1306V71.1191Z" fill="#B38E4F"/>
<rect width="26.8828" height="22.741" rx="2.08696" transform="matrix(-1 0 0 1 47.7891 71.1191)" fill="#FFCB71"/>
<rect width="10.3936" height="22.741" rx="2.08696" transform="matrix(-1 0 0 1 31.3008 71.1191)" fill="#FFE0AA"/>
<path d="M41.6953 71.1191H36.5376V85.1306C36.5376 86.2832 37.4719 87.2176 38.6245 87.2176H39.6084C40.761 87.2176 41.6953 86.2832 41.6953 85.1306V71.1191Z" fill="#B38E4F"/>
<circle cx="86.7001" cy="42.0868" r="23.0907" fill="white"/>
<circle cx="86.7005" cy="42.0872" r="11.9856" stroke="#EF5454" strokeWidth="5.21739" strokeLinecap="round"/>
<path d="M95.9111 35.0859L77.7422 49.5429" stroke="#EF5454" strokeWidth="5.21739" strokeLinecap="round"/>
</svg>
