<svg width="116" height="115" viewBox="0 0 116 115" fill="none" xmlns="http://www.w3.org/2000/svg">
<rect x="0.5" width="115" height="115" rx="57.5" fill="#DCEDFF"/>
<rect x="26.3372" y="52.7333" width="53.0281" height="44.8581" rx="3.81727" fill="#435BBF"/>
<rect x="58.863" y="52.7333" width="28.5718" height="44.8581" rx="3.81727" fill="#5472EF"/>
<path d="M25.1744 53.6495C25.4939 52.924 26.2119 52.4556 27.0048 52.4556H58.8631L49.3889 73.9685C49.0693 74.6941 48.3514 75.1624 47.5585 75.1624H18.7663C17.322 75.1624 16.3538 73.6782 16.936 72.3563L25.1744 53.6495Z" fill="#222E60"/>
<path d="M91.4726 53.6495C91.153 52.9239 90.435 52.4556 89.6422 52.4556H57.7839L67.2581 73.9684C67.5776 74.694 68.2956 75.1624 69.0884 75.1624H97.8806C99.325 75.1624 100.293 73.6782 99.711 72.3563L91.4726 53.6495Z" fill="#32448F"/>
<path d="M68.8403 39.5487C72.2389 36.547 74.3822 32.1568 74.3822 27.2659C74.3822 18.2184 67.0477 10.8839 58.0002 10.8839C48.9526 10.8839 41.6182 18.2184 41.6182 27.2659C41.6182 32.1568 43.7614 36.547 47.16 39.5487H47.0232L58.0002 50.9149L68.9771 39.5487H68.8403Z" fill="#EF5454"/>
<path d="M56.3087 31.0816V30.8464C56.3133 30.0393 56.3848 29.3959 56.5231 28.9163C56.6661 28.4366 56.8736 28.0492 57.1458 27.754C57.4179 27.4588 57.7453 27.1913 58.1281 26.9515C58.4141 26.767 58.67 26.5756 58.896 26.3773C59.122 26.179 59.3019 25.9599 59.4356 25.7201C59.5694 25.4757 59.6362 25.2036 59.6362 24.9038C59.6362 24.5855 59.5602 24.3065 59.408 24.0667C59.2558 23.8269 59.0505 23.6424 58.7922 23.5133C58.5386 23.3841 58.2573 23.3195 57.9482 23.3195C57.6485 23.3195 57.3648 23.3864 57.0973 23.5202C56.8298 23.6493 56.6108 23.843 56.4401 24.1013C56.2695 24.3549 56.1772 24.6709 56.1634 25.0491H53.3408C53.3639 24.1267 53.5853 23.3657 54.005 22.7661C54.4246 22.1619 54.9804 21.7123 55.6722 21.4171C56.364 21.1173 57.1273 20.9674 57.9621 20.9674C58.8799 20.9674 59.6916 21.1196 60.3972 21.424C61.1029 21.7238 61.6563 22.1596 62.0576 22.7315C62.4588 23.3034 62.6594 23.9929 62.6594 24.8C62.6594 25.3396 62.5695 25.8193 62.3896 26.239C62.2144 26.654 61.9676 27.023 61.6494 27.3459C61.3312 27.6641 60.9553 27.9523 60.5218 28.2106C60.1574 28.4274 59.8576 28.6534 59.6224 28.8886C59.3918 29.1238 59.2189 29.3959 59.1036 29.7049C58.9929 30.0139 58.9352 30.3944 58.9306 30.8464V31.0816H56.3087ZM57.6784 35.5092C57.2172 35.5092 56.8229 35.3477 56.4955 35.0249C56.1726 34.6974 56.0135 34.3054 56.0181 33.8488C56.0135 33.3968 56.1726 33.0094 56.4955 32.6866C56.8229 32.3637 57.2172 32.2023 57.6784 32.2023C58.1166 32.2023 58.5017 32.3637 58.8338 32.6866C59.1658 33.0094 59.3342 33.3968 59.3388 33.8488C59.3342 34.1532 59.2535 34.4322 59.0966 34.6859C58.9444 34.935 58.7438 35.1356 58.4948 35.2878C58.2457 35.4354 57.9736 35.5092 57.6784 35.5092Z" fill="white"/>
<path d="M80.0264 23.1809L86.1277 20.9674" stroke="#EF5454" strokeWidth="4.05" strokeLinecap="round"/>
<path d="M80.0264 36.0682L85.9703 38.6751" stroke="#EF5454" strokeWidth="4.05" strokeLinecap="round"/>
<path d="M35.9736 23.1809L29.8723 20.9674" stroke="#EF5454" strokeWidth="4.05" strokeLinecap="round"/>
<path d="M35.9736 36.0682L30.0297 38.6751" stroke="#EF5454" strokeWidth="4.05" strokeLinecap="round"/>
</svg>
