<svg width="20" height="20" viewBox="0 0 20 20" fill="none" xmlns="http://www.w3.org/2000/svg">
<path d="M17 5V3C17 2.44772 16.5523 2 16 2H4C3.44772 2 3 2.44772 3 3V17C3 17.5523 3.44772 18 4 18H13H16C16.5523 18 17 17.5523 17 17V14V7" stroke="#203551" strokeWidth="1.3" stroke-miterlimit="10" strokeLinecap="round" strokeLinejoin="round"/>
<path d="M13 6.80493V6.15493C13.359 6.15493 13.65 6.44595 13.65 6.80493H13ZM6.35 8.49997C6.35 8.14098 6.64102 7.84997 7 7.84997C7.35898 7.84997 7.65 8.14098 7.65 8.49997H6.35ZM13 7.45493H7V6.15493H13V7.45493ZM8 10.9956H12V12.2956H8V10.9956ZM12.35 10.6456V6.80493H13.65V10.6456H12.35ZM7.65 8.49997V10.6456H6.35V8.49997H7.65ZM12 10.9956C12.1933 10.9956 12.35 10.8389 12.35 10.6456H13.65C13.65 11.5569 12.9113 12.2956 12 12.2956V10.9956ZM8 12.2956C7.08873 12.2956 6.35 11.5569 6.35 10.6456H7.65C7.65 10.8389 7.8067 10.9956 8 10.9956V12.2956Z" fill="#203551"/>
<path d="M7 6.80493H13L12.2222 5.49066C12.0422 5.18652 11.715 4.99997 11.3616 4.99997H8.63838C8.28496 4.99997 7.95779 5.18652 7.7778 5.49066L7 6.80493Z" stroke="#203551" strokeWidth="1.3" strokeLinejoin="round"/>
<path d="M8 15H12" stroke="#203551" strokeWidth="1.3" stroke-miterlimit="10" strokeLinecap="round" strokeLinejoin="round"/>
</svg>
