<svg width="116" height="115" viewBox="0 0 116 115" fill="none" xmlns="http://www.w3.org/2000/svg">
<rect x="0.5" width="115" height="115" rx="57.5" fill="#DCEDFF"/>
<rect x="26.3372" y="52.7334" width="53.0281" height="44.8581" rx="3.81727" fill="#435BBF"/>
<rect x="58.863" y="52.7333" width="28.5718" height="44.8581" rx="3.81727" fill="#5472EF"/>
<path d="M25.1744 53.6495C25.4939 52.9239 26.2119 52.4556 27.0048 52.4556H58.8631L49.3889 73.9684C49.0693 74.694 48.3514 75.1624 47.5585 75.1624H18.7663C17.322 75.1624 16.3538 73.6782 16.936 72.3563L25.1744 53.6495Z" fill="#222E60"/>
<path d="M91.4726 53.6495C91.153 52.9239 90.435 52.4556 89.6422 52.4556H57.7839L67.2581 73.9684C67.5776 74.694 68.2956 75.1624 69.0884 75.1624H97.8806C99.325 75.1624 100.293 73.6782 99.711 72.3563L91.4726 53.6495Z" fill="#32448F"/>
<path d="M70.2017 59.5076L84.5489 75.4599" stroke="#222E60" strokeWidth="4.86"/>
<circle cx="16.4337" cy="16.4337" r="16.4337" transform="matrix(-0.743524 0.668709 0.668709 0.743524 60.0225 24.2972)" fill="white"/>
<path d="M57.1014 49.6164L57.1014 49.3812C57.106 48.5741 57.1775 47.9307 57.3158 47.451C57.4588 46.9714 57.6664 46.584 57.9385 46.2888C58.2106 45.9936 58.538 45.7261 58.9208 45.4863C59.2068 45.3018 59.4628 45.1104 59.6887 44.9121C59.9147 44.7138 60.0946 44.4947 60.2283 44.2549C60.3621 44.0105 60.429 43.7384 60.429 43.4386C60.429 43.1203 60.3529 42.8413 60.2007 42.6015C60.0485 42.3617 59.8432 42.1772 59.585 42.048C59.3313 41.9189 59.05 41.8543 58.741 41.8543C58.4412 41.8543 58.1575 41.9212 57.89 42.055C57.6226 42.1841 57.4035 42.3778 57.2328 42.6361C57.0622 42.8897 56.9699 43.2057 56.9561 43.5838L54.1335 43.5838C54.1566 42.6614 54.378 41.9005 54.7977 41.3009C55.2174 40.6967 55.7731 40.247 56.4649 39.9519C57.1567 39.6521 57.92 39.5022 58.7548 39.5022C59.6726 39.5022 60.4843 39.6544 61.19 39.9588C61.8956 40.2586 62.449 40.6944 62.8503 41.2663C63.2515 41.8382 63.4522 42.5277 63.4522 43.3348C63.4522 43.8744 63.3622 44.3541 63.1824 44.7738C63.0071 45.1888 62.7604 45.5578 62.4421 45.8806C62.1239 46.1989 61.748 46.4871 61.3145 46.7454C60.9501 46.9622 60.6504 47.1882 60.4151 47.4234C60.1845 47.6586 60.0116 47.9307 59.8963 48.2397C59.7856 48.5487 59.7279 48.9292 59.7233 49.3812L59.7233 49.6164L57.1014 49.6164ZM58.4712 54.0439C58.01 54.0439 57.6156 53.8825 57.2882 53.5597C56.9653 53.2322 56.8062 52.8402 56.8108 52.3836C56.8062 51.9316 56.9653 51.5442 57.2882 51.2214C57.6156 50.8985 58.01 50.7371 58.4712 50.7371C58.9093 50.7371 59.2944 50.8985 59.6265 51.2214C59.9585 51.5442 60.1269 51.9316 60.1315 52.3836C60.1269 52.688 60.0462 52.967 59.8894 53.2207C59.7372 53.4697 59.5365 53.6704 59.2875 53.8226C59.0384 53.9702 58.7663 54.0439 58.4712 54.0439Z" fill="#EF5454"/>
<circle cx="16.4337" cy="16.4337" r="16.4337" transform="matrix(-0.743524 0.668709 0.668709 0.743524 60.0225 24.2972)" stroke="#EF5454" strokeWidth="4.86"/>
<path d="M75.9309 66.0646L86.208 77.4915" stroke="#222E60" strokeWidth="7.29" strokeLinecap="round"/>
</svg>
