<svg width="32" height="32" viewBox="0 0 32 32" fill="none" xmlns="http://www.w3.org/2000/svg">
<circle cx="16" cy="16" r="16" fill="#E1F1E6"/>
<rect width="20" height="20" transform="translate(6 6)" fill="#E1F1E6"/>
<path fill-rule="evenodd" clip-rule="evenodd" d="M15.7596 7C15.7826 7 15.8054 7.0012 15.8278 7.00353H19.7681C20.3512 7.00353 20.891 7.31134 21.188 7.81318L23.4292 11.6002C23.5481 11.8011 23.5501 12.0504 23.4345 12.2532C23.3189 12.456 23.1033 12.5813 22.8698 12.5813H9.3V22.4035C9.3 22.5968 9.4567 22.7535 9.65 22.7535H21.8698C22.0631 22.7535 22.2198 22.5968 22.2198 22.4035V15.0424C22.2198 14.6834 22.5109 14.3924 22.8698 14.3924C23.2288 14.3924 23.5198 14.6834 23.5198 15.0424V22.4035C23.5198 23.3148 22.7811 24.0535 21.8698 24.0535H9.65C8.73873 24.0535 8 23.3148 8 22.4035V11.9313V11.9313C8 11.8064 8.03518 11.6898 8.09617 11.5908L10.3318 7.81318C10.6288 7.31134 11.1686 7.00353 11.7518 7.00353H15.6915C15.7139 7.0012 15.7366 7 15.7596 7ZM11.7518 8.30353H15.1096L15.1096 11.2812H9.78997L11.4506 8.47527C11.5136 8.36882 11.6281 8.30353 11.7518 8.30353ZM16.4096 8.30353V11.2812H21.7299L20.0693 8.47527C20.0063 8.36882 19.8918 8.30353 19.7681 8.30353H16.4096ZM18.7413 16.5159C18.9951 16.262 18.9951 15.8505 18.7413 15.5966C18.4874 15.3428 18.0759 15.3428 17.822 15.5966L15.0638 18.3549L13.7038 16.995C13.45 16.7411 13.0384 16.7411 12.7846 16.995C12.5308 17.2488 12.5308 17.6604 12.7846 17.9142L14.6042 19.7337C14.858 19.9876 15.2696 19.9876 15.5234 19.7337L18.7413 16.5159Z" fill="#54B827"/>
</svg>
