<svg width="76" height="76" viewBox="0 0 76 76" fill="none" xmlns="http://www.w3.org/2000/svg">
<rect width="76" height="76" rx="35" fill="#DCEDFF"/>
<path d="M16.4775 26.8563C16.4775 26.1037 17.0877 25.4935 17.8403 25.4935H28.6637C29.301 25.4935 29.8917 25.8274 30.2204 26.3733L32.5357 30.219C32.7001 30.492 32.9954 30.6589 33.3141 30.6589H53.9567C54.7093 30.6589 55.3194 31.2691 55.3194 32.0217V57.7597H18.1072C17.2072 57.7597 16.4775 57.03 16.4775 56.13V26.8563Z" fill="#CC7051"/>
<path d="M23.21 19.1483C23.21 18.6465 23.6167 18.2397 24.1185 18.2397H48.7864C49.2881 18.2397 49.6949 18.6465 49.6949 19.1483V52.7374H23.21V19.1483Z" fill="white"/>
<path d="M29.0444 25.4935H43.8644" stroke="#F6B755" strokeLinecap="round" strokeLinejoin="round"/>
<path d="M29.0444 30.4336H40.5711" stroke="#F6B755" strokeLinecap="round" strokeLinejoin="round"/>
<mask id="mask0_1268_12506" style="mask-type:alpha" maskUnits="userSpaceOnUse" x="16" y="36" width="45" height="22">
<path d="M55.3194 57.76L60.4041 37.8793C60.6246 37.0174 59.9735 36.1788 59.0839 36.1788L23.4079 36.1788C22.5778 36.1788 21.8533 36.7414 21.6476 37.5456L16.4775 57.76H55.3194Z" fill="#BBC7FF"/>
</mask>
<g mask="url(#mask0_1268_12506)">
<path d="M55.3194 57.76L60.4041 37.8793C60.6246 37.0174 59.9735 36.1788 59.0839 36.1788L23.4079 36.1788C22.5778 36.1788 21.8533 36.7414 21.6476 37.5456L16.8243 56.4043C16.6485 57.0914 17.1676 57.76 17.8769 57.76H55.3194Z" fill="#F9B66F"/>
<path d="M35.7091 52.2504L37.0651 47.032C37.1545 46.688 36.8948 46.3522 36.5393 46.3522L25.3347 46.3522C24.9883 46.3522 24.6857 46.5862 24.5986 46.9214L23.2426 52.1398C23.1532 52.4839 23.4129 52.8197 23.7684 52.8197H34.973C35.3194 52.8197 35.622 52.5856 35.7091 52.2504Z" fill="#EB934E"/>
<path d="M27.6245 49.5933H32.5645" stroke="#CC7051" strokeLinecap="round" strokeLinejoin="round"/>
<circle cx="54.2825" cy="49.739" r="10.0926" fill="#BF684F"/>
</g>
<circle cx="55.3198" cy="48.7034" r="9.05665" fill="#F6B755"/>
<path d="M57.854 47.9423L55.32 45.4083L52.786 47.9423" stroke="white" strokeWidth="1.08648" strokeLinecap="round" strokeLinejoin="round"/>
<path d="M55.3223 45.8556L55.3223 51.9963" stroke="white" strokeWidth="1.08648" strokeLinecap="round" strokeLinejoin="round"/>
</svg>
